<?xml version="1.0" encoding="UTF-8" standalone="no"?>
<svg
   xmlns:dc="http://purl.org/dc/elements/1.1/"
   xmlns:cc="http://creativecommons.org/ns#"
   xmlns:rdf="http://www.w3.org/1999/02/22-rdf-syntax-ns#"
   xmlns:svg="http://www.w3.org/2000/svg"
   xmlns="http://www.w3.org/2000/svg"
   id="svg18380"
   height="301.86478"
   width="1041.2072"
   version="1.0">
  <metadata
     id="metadata25">
    <rdf:RDF>
      <cc:Work
         rdf:about="">
        <dc:format>image/svg+xml</dc:format>
        <dc:type
           rdf:resource="http://purl.org/dc/dcmitype/StillImage" />
        <dc:title></dc:title>
      </cc:Work>
    </rdf:RDF>
  </metadata>
  <defs
     id="defs18382" />
  <g
     style="fill:#000000"
     id="g7262"
     transform="matrix(1.6738399,0,0,-1.6738399,-470.74437,409.355)">
    <path
       style="fill:#000000;fill-opacity:1;stroke:none"
       id="path7264"
       d="m 397.65625,89.03125 c -2.44577,1.280488 -13.51656,8.062462 -16.0451,9.562011 7.52561,6.058809 18.20322,14.809699 25.51434,22.120819 12.91539,12.91539 29.9192,35.97237 38.79002,49.26176 -0.057,-0.83862 -0.69983,-18.71174 -0.78471,-19.54244 -2.88837,-28.26911 -21.77546,-51.812151 -47.47455,-61.40215 z m -52.0625,0.25 c -25.59834,9.830616 -45.40843,35.39875 -47.23894,61.60481 -0.0794,1.13711 -0.45985,2.9962 -0.40685,7.39308 0.0546,4.52755 0.4224,10.6929 1.19154,9.63933 7.78617,-10.66544 29.87825,-40.98359 40.21608,-51.32142 7.31221,-7.31222 14.48205,-12.19922 22.01106,-18.253888 -2.37403,-1.407192 -13.4715,-7.847069 -15.77289,-9.061912 z M 371.375,105.875 c -8.64653,6.53426 -17.37796,14.12796 -25.875,22.625 -19.08371,19.0837 -33.5291,39.47738 -41.84375,56.96875 10.89415,27.02679 37.36898,46.125 68.28125,46.125 30.44311,0 56.589,-18.5294 67.78125,-44.90625 -8.2144,-17.75696 -22.87853,-38.65979 -42.40625,-58.1875 -8.50871,-8.50871 -17.27751,-16.08837 -25.9375,-22.625 z" />
    <path
       style="fill:#000000;fill-opacity:1;stroke:none"
       id="path7266"
       d="m 309.71875,64.21875 c -8.62875,-0.05678 -15.91363,2.28863 -21.0625,7.4375 -10.29775,10.297737 -9.29905,29.06394 -0.5625,50.28125 1.76817,4.29412 3.88447,8.72027 6.28125,13.21875 0.73577,-2.49949 1.59795,-4.95108 2.5625,-7.34375 -1.19244,-2.4608 -2.3049,-4.91012 -3.28125,-7.28125 -8.24178,-20.01578 -8.50734,-36.023909 -0.3125,-44.21875 8.19484,-8.194841 24.20297,-7.898041 44.21875,0.34375 6.92447,2.851251 22.70344,12.699916 30.25271,17.34122 1.6216,-1.217548 3.25412,-2.407947 4.875,-3.5625 -8.69666,-5.510745 -25.66112,-16.00939 -33.75271,-19.34122 -10.60866,-4.368271 -20.59,-6.818221 -29.21875,-6.875 z M 383,97.71875 c -1.60474,1.052238 -3.2214,2.118882 -4.84375,3.25 8.3187,6.42223 16.68285,13.74535 24.8125,21.875 21.87567,21.87566 37.9457,45.39047 46.1875,65.40625 8.24178,20.01579 8.50734,36.02391 0.3125,44.21875 -8.19483,8.19483 -24.17171,7.92929 -44.1875,-0.3125 -0.17287,-0.0712 -0.35785,-0.1464 -0.53125,-0.21875 -2.41181,1.07232 -4.90846,2.00756 -7.4375,2.84375 2.2121,1.04832 4.40706,2.04997 6.5625,2.9375 21.21732,8.73656 39.98351,9.70399 50.28125,-0.59375 10.29773,-10.29774 9.29904,-29.03268 0.5625,-50.25 -8.73655,-21.21731 -25.36847,-45.43096 -47.875,-67.9375 C 399.02819,111.12194 391.0254,104.02796 383,97.71875 Z" />
    <path
       style="fill:#000000;fill-opacity:1;stroke:none"
       id="path7268"
       d="m 433.09375,64.21875 c -8.624,0.05204 -18.61009,2.506728 -29.21875,6.875 -21.21731,8.736544 -45.39972,25.337212 -67.90625,47.84375 -22.50652,22.50653 -39.13845,46.68893 -47.875,67.90625 -8.73654,21.21732 -9.73524,39.98351 0.5625,50.28125 10.29774,10.29774 29.06393,9.29905 50.28125,0.5625 2.2968,-0.94574 4.63962,-1.99724 7,-3.125 -2.48679,-0.84557 -4.94096,-1.80047 -7.3125,-2.875 -0.35133,0.14855 -0.71328,0.2937 -1.0625,0.4375 -20.01577,8.24179 -36.05516,8.53859 -44.25,0.34375 -8.19485,-8.19485 -7.89804,-24.20297 0.34375,-44.21875 8.24179,-20.01579 24.31184,-43.53059 46.1875,-65.40625 21.87567,-21.87567 45.42172,-37.945706 65.4375,-46.1875 20.01579,-8.241789 35.99266,-8.53859 44.1875,-0.34375 8.19483,8.194839 7.9293,24.20296 -0.3125,44.21875 -0.81379,1.97636 -1.72287,3.99128 -2.6875,6.03125 1.00664,2.38137 1.87782,4.82131 2.65625,7.3125 2.12018,-4.0621 3.99183,-8.04714 5.59375,-11.9375 8.73653,-21.21732 9.70399,-39.98351 -0.59375,-50.28125 -5.14887,-5.148871 -12.40725,-7.489535 -21.03125,-7.4375 z" />
  </g>
  <text
     style="font-style:normal;font-weight:normal;font-size:72px;font-family:'AvantGarde Bk BT';-inkscape-font-specification:'AvantGarde Bk BT';fill:#000000;fill-opacity:1;stroke:none"
     xml:space="preserve"
     id="text2923"
     y="56.157154"
     x="447.89914"><tspan
       id="tspan2925"
       y="56.157154"
       x="447.89914" /></text>
  <g
     style="fill:#000000"
     id="g3191"
     transform="matrix(1.2740652,0,0,1.2740652,312.52571,-58.401719)">
    <g
       style="fill:#000000"
       id="g2564"
       transform="matrix(0.996297,0,0,1,-99.53402,-71.8889)">
      <g
         style="fill:#000000"
         id="g6643"
         transform="matrix(0.7446541,0,0,0.7446541,124.05379,843.43751)">
        <path
           style="font-style:normal;font-variant:normal;font-weight:normal;font-stretch:normal;font-size:12px;line-height:125%;font-family:'Century Gothic';text-align:start;writing-mode:lr-tb;text-anchor:start;fill:#000000;fill-opacity:1;fill-rule:nonzero;stroke:none"
           id="text1542"
           d="m 8.8633677,-880.71377 v 136.46745 H 21.504596 v -123.10515 h 22.270545 c 8.653606,1.1e-4 15.069163,0.55543 18.794258,2.16361 3.725033,1.60831 7.038009,2.37581 10.948792,6.39142 3.997704,4.10486 5.720082,6.48729 7.958907,13.69891 1.305525,4.70727 0.70767,11.90734 -1.741521,17.78418 -1.523459,3.82438 -5.875003,9.52013 -11.366483,12.80368 -5.49147,3.28355 -11.006008,3.06428 -19.5091,3.25791 -8.503092,0.19362 -9.534322,0.18778 -9.534322,0.18778 l 39.810175,66.81766 h 16.831084 l -33.043074,-54.1107 c 6.910249,-0.76709 14.008978,-4.67265 15.98307,-6.10738 6.418089,-4.8751 9.575089,-6.99025 13.13607,-13.67688 2.73911,-6.15753 3.718114,-12.96229 3.9214,-19.6455 0.203268,-10.56232 -4.132563,-23.00327 -12.418848,-31.01458 -8.406679,-8.12769 -13.270023,-8.99357 -19.516664,-10.5399 -6.246665,-1.54631 -15.93036,-1.37236 -29.971,-1.37251 z" />
        <path
           style="font-style:normal;font-variant:normal;font-weight:normal;font-stretch:normal;font-size:12px;line-height:125%;font-family:'Century Gothic';text-align:start;writing-mode:lr-tb;text-anchor:start;fill:#000000;fill-opacity:1;fill-rule:nonzero;stroke:none"
           id="path3381"
           d="m 157.05326,-850.64901 c -16.30538,0.39632 -29.3888,6.93479 -39.23579,19.61313 -8.01812,10.29209 -12.01292,22.0214 -12.01292,35.17226 0,13.97691 4.72249,26.52295 14.19271,37.64089 9.47012,11.05436 22.61142,16.57833 39.4053,16.57831 7.5761,0 14.37088,-1.13268 20.36869,-3.41984 5.99772,-2.35063 11.60867,-5.50873 16.1787,-10.19158 5.27636,-5.40661 9.98567,-14.38675 13.6476,-21.62945 l -14.51308,0.0849 c -4.04065,6.79795 -5.90097,9.58124 -9.37327,12.63055 -3.47253,3.04966 -7.22528,5.73543 -12.21284,7.57778 -4.92456,1.8424 -9.99404,2.76306 -15.23413,2.76306 -10.8592,0 -19.98145,-3.86319 -27.36817,-11.55045 -7.38676,-7.75086 -11.20333,-14.28542 -11.45588,-26.35636 l 93.09408,0.23984 c -0.12643,-14.16735 -4.38745,-29.59802 -11.83724,-39.06429 -10.48048,-13.40492 -24.49395,-20.0886 -42.04528,-20.08874 -0.53268,10e-6 -1.07251,-0.0128 -1.59848,0 z m 1.55007,12.75079 c 0.0787,-3.9e-4 0.13904,0 0.21796,0 6.12398,0 11.97905,1.31344 17.53502,3.9181 5.55569,2.60499 9.9988,6.02562 13.34498,10.28218 3.40916,4.25659 6.72406,11.88002 8.25277,20.67416 l -77.89918,0.47967 c 0.80173,-12.40767 7.42699,-20.75992 12.73032,-25.5249 7.20372,-6.49232 15.81746,-9.77849 25.81813,-9.82921 z" />
        <path
           style="font-style:normal;font-variant:normal;font-weight:normal;font-stretch:normal;font-size:12px;line-height:125%;font-family:'Century Gothic';text-align:start;writing-mode:lr-tb;text-anchor:start;fill:#000000;fill-opacity:1;fill-rule:nonzero;stroke:none"
           id="path3443"
           d="m 276.01965,-850.17452 c -13.75291,0.35912 -25.62011,5.64596 -35.49836,15.85395 -10.23832,10.58021 -15.34174,23.37035 -15.34174,38.25675 0,15.20029 5.05187,28.16391 15.16667,38.808 10.1763,10.58034 22.47476,15.85397 36.81148,15.85395 8.06902,0 15.04193,-0.60085 22.11159,-3.7217 6.81793,-3.00971 12.48924,-8.12483 18.13593,-14.2115 v 15.04465 c -7.2e-4,0.0645 0.0204,0.13075 0.0657,0.1764 0.0453,0.0456 0.11102,0.0669 0.17509,0.0661 h 12.80304 c 0.0641,7.2e-4 0.12978,-0.0205 0.1751,-0.0661 0.0453,-0.0457 0.0664,-0.11186 0.0656,-0.1764 v -103.0176 c 7.4e-4,-0.0645 -0.0203,-0.13076 -0.0656,-0.1764 -0.0453,-0.0457 -0.11103,-0.0669 -0.1751,-0.0661 h -12.80304 c -0.0641,-7.3e-4 -0.12977,0.0205 -0.17509,0.0661 -0.0453,0.0456 -0.0664,0.11185 -0.0657,0.1764 v 16.23535 c -4.989,-6.91832 -10.19542,-10.7563 -16.7712,-14.28365 -6.71895,-3.60414 -14.80943,-4.81806 -23.12614,-4.8182 -0.50011,0 -0.98108,-0.0132 -1.48823,0 z m 1.31312,13.2741 c 0.38316,-0.0107 0.80387,0 1.20373,0 11.19378,2e-5 20.5861,3.97833 28.21047,11.9511 7.68524,7.97244 11.51169,17.86938 11.51179,29.74545 -10e-5,7.79037 -1.70229,14.7809 -5.1431,20.9916 -0.007,-3.4e-4 -0.0146,-3.4e-4 -0.0219,0 -3.37897,6.20968 -8.22189,11.13297 -14.55389,14.7735 -6.33357,3.64141 -13.04496,5.44637 -20.11279,5.44635 -7.00584,-2e-5 -13.54969,-1.80597 -19.69701,-5.44635 -6.08354,-3.70157 -10.92495,-8.8631 -14.55389,-15.45705 -3.62914,-6.59435 -5.44952,-13.48743 -5.44951,-20.70495 -2e-5,-7.28127 1.79483,-14.19627 5.36197,-20.727 3.6282,-6.52974 8.44879,-11.55019 14.53201,-15.1263 0.007,3.3e-4 0.0146,3.3e-4 0.0219,0 5.75183,-3.44036 11.94978,-5.25818 18.69023,-5.44635 z" />
        <path
           style="font-style:normal;font-variant:normal;font-weight:normal;font-stretch:normal;font-size:12px;line-height:125%;font-family:'Century Gothic';text-align:start;writing-mode:lr-tb;text-anchor:start;fill:#000000;fill-opacity:1;fill-rule:nonzero;stroke:none"
           id="path3448"
           d="m 396.16866,-850.21862 c -9.85342,1.4e-4 -18.78533,2.40923 -26.75545,7.2324 -7.96915,4.82272 -14.23561,11.55189 -18.81894,20.17575 -4.52611,8.56058 -6.7933,17.85692 -6.79328,27.8712 -1e-5,14.89299 4.88015,27.57063 14.61985,37.9701 9.74233,10.40255 22.02501,15.61142 36.80248,15.6114 9.61911,0 18.20791,-2.04468 25.72216,-6.10785 7.56846,-4.12506 17.64208,-11.59875 23.74463,-28.71677 0,0 -14.10009,-0.26328 -14.19747,-0.142 -6.71297,15.83422 -21.13946,22.28789 -34.74168,22.28787 -7.42382,0 -14.11596,-1.81253 -20.11606,-5.44635 -5.94323,-3.63355 -10.65709,-8.73848 -14.11419,-15.32475 -3.40133,-6.58817 -5.10051,-13.61309 -5.10048,-21.0798 -2e-5,-11.48806 3.70006,-21.2093 11.12428,-29.2383 7.47842,-8.02629 16.83828,-12.03914 28.11849,-12.0393 14.11841,1.6e-4 24.85296,5.78103 34.25186,21.47513 0.04,0.0652 9.22104,0.13297 14.75326,0.10827 -2.91564,-11.31501 -11.87493,-19.93323 -15.89608,-23.3033 -4.02064,-3.36927 -8.94466,-6.11043 -14.7298,-8.2026 -5.73323,-2.09394 -11.6841,-3.13095 -17.87358,-3.1311 z" />
        <path
           style="font-style:normal;font-variant:normal;font-weight:normal;font-stretch:normal;font-size:12px;line-height:125%;font-family:'Century Gothic';text-align:start;writing-mode:lr-tb;text-anchor:start;fill:#000000;fill-opacity:1;fill-rule:nonzero;stroke:none"
           id="path3371"
           d="m 473.24926,-881.9467 h 13.07733 v 34.63548 l 19.56212,-0.23983 v 13.66444 h -19.56212 v 89.40903 h -13.31648 v -89.40903 l -19.7668,0.23983 v -13.66444 H 472.771 v -34.63548" />
        <path
           style="font-style:normal;font-variant:normal;font-weight:normal;font-stretch:normal;font-size:12px;line-height:125%;font-family:'Century Gothic';text-align:start;writing-mode:lr-tb;text-anchor:start;fill:#000000;fill-opacity:1;fill-rule:nonzero;stroke:none"
           id="path3369"
           d="m 579.50943,-884.15357 c -11.92436,0.14589 -23.02886,3.34834 -33.3084,9.5697 -10.52627,6.30931 -18.83312,15.04413 -24.9585,26.2395 -6.066,11.19558 -9.10276,23.35789 -9.10275,36.4707 -10e-6,19.66959 6.67261,36.44083 20.05348,50.29605 13.38078,13.85522 29.80844,20.77112 49.25534,20.7711 19.20885,0 35.47759,-6.96418 48.79907,-20.88135 13.38065,-13.91702 20.05339,-30.86856 20.05349,-50.8473 -1.3e-4,-20.16435 -6.67284,-37.14214 -20.05349,-50.9355 -13.38097,-13.79332 -30.0083,-20.68281 -49.87134,-20.6829 -0.28711,0 -0.58073,-0.004 -0.8669,0 z m 0.59316,13.3623 c 0.30194,-0.005 0.58679,0 0.88973,0 9.87202,6e-5 19.2138,2.63649 28.01554,7.8939 8.80152,5.25766 15.62409,12.2746 20.44132,21.05775 4.87647,8.72148 7.30039,18.48012 7.30046,29.30445 -10e-5,10.88623 -2.42397,20.79444 -7.30046,29.70135 -4.81725,8.90694 -11.57621,15.92402 -20.25879,21.05775 -8.62331,5.13387 -18.0287,7.69544 -28.19807,7.69545 -15.22448,0 -28.23393,-5.5581 -39.05751,-16.69185 -10.76412,-11.19533 -16.15231,-24.89542 -16.15228,-41.1012 -3e-5,-10.9479 2.44666,-20.88248 7.32328,-29.78955 4.87656,-8.90678 11.64453,-15.97648 20.32722,-21.23415 8.41135,-5.09311 17.30933,-7.73468 26.66956,-7.8939 z" />
        <path
           style="font-style:normal;font-variant:normal;font-weight:normal;font-stretch:normal;font-size:12px;line-height:125%;font-family:'Century Gothic';text-align:start;writing-mode:lr-tb;text-anchor:start;fill:#000000;fill-opacity:1;fill-rule:nonzero;stroke:none"
           id="path3365"
           d="m 674.73859,-783.87386 c 0.65106,20.51 13.62883,28.60642 24.82453,28.60642 4.78892,0 9.28657,-1.03204 13.49312,-3.09647 4.20644,-2.12492 7.47683,-5.25328 9.37107,-8.94952 3.15674,-6.15961 5.74772,-17.69825 0.59903,-27.28551 -3.52114,-6.55665 -13.90239,-13.56377 -26.85367,-17.65568 -12.88461,-4.07084 -18.83921,-7.58597 -24.86007,-14.94795 -5.04778,-6.31424 -5.41953,-11.94561 -5.41951,-19.29226 -2e-5,-5.82854 2.44497,-16.17775 5.42188,-20.97435 2.97689,-4.79638 7.15104,-8.56069 12.52237,-11.29299 5.43608,-2.79279 11.32512,-4.18927 17.66724,-4.18935 6.7303,8e-5 13.00771,1.5787 18.83214,4.73585 5.88897,3.09649 15.44949,14.11057 14.81181,30.88363 l -12.12692,-0.10682 c -0.11058,-9.79651 -5.42272,-17.55607 -9.24085,-19.68138 -3.75358,-2.12491 -8.34121,-3.42716 -12.80653,-3.42734 -5.75969,1.8e-4 -10.96212,2.35902 -14.65087,5.63755 -8.40672,8.07539 -8.37587,18.09008 -6.60331,23.46056 0.94783,2.87177 3.41723,8.8252 10.6733,12.28284 8.33324,4.0986 13.52463,5.68312 18.92202,7.6315 16.18664,4.24386 25.62083,14.74164 27.34611,22.13987 1.84251,7.90111 2.23599,15.3598 1.3922,22.04579 -1.19573,9.47462 -5.14348,19.11323 -9.21244,23.39957 -7.83062,7.1643 -17.13697,11.94574 -28.39732,11.94574 -8.67187,0 -16.0565,-2.39522 -23.11044,-6.70604 -7.05395,-4.37145 -14.99256,-18.37283 -15.92466,-35.28856" />
      </g>
    </g>
  </g>
</svg>
