<?xml version="1.0" encoding="UTF-8" standalone="no"?>
<svg
   xmlns:dc="http://purl.org/dc/elements/1.1/"
   xmlns:cc="http://creativecommons.org/ns#"
   xmlns:rdf="http://www.w3.org/1999/02/22-rdf-syntax-ns#"
   xmlns:svg="http://www.w3.org/2000/svg"
   xmlns="http://www.w3.org/2000/svg"
   xmlns:sodipodi="http://sodipodi.sourceforge.net/DTD/sodipodi-0.dtd"
   xmlns:inkscape="http://www.inkscape.org/namespaces/inkscape"
   version="1.0"
   width="1707.5"
   height="402.125"
   id="svg18380"
   sodipodi:docname="Hackfest_2019_Back.svg"
   inkscape:version="0.92.1 r15371">
  <sodipodi:namedview
     pagecolor="#353f55"
     bordercolor="#666666"
     borderopacity="1"
     objecttolerance="10"
     gridtolerance="10"
     guidetolerance="10"
     inkscape:pageopacity="0"
     inkscape:pageshadow="2"
     inkscape:window-width="2100"
     inkscape:window-height="1234"
     id="namedview22"
     showgrid="false"
     inkscape:zoom="0.30466645"
     inkscape:cx="-226.92253"
     inkscape:cy="-738.34172"
     inkscape:window-x="-9"
     inkscape:window-y="-9"
     inkscape:window-maximized="1"
     inkscape:current-layer="svg18380"
     fit-margin-top="10"
     fit-margin-left="10"
     fit-margin-right="10"
     fit-margin-bottom="10" />
  <metadata
     id="metadata25">
    <rdf:RDF>
      <cc:Work
         rdf:about="">
        <dc:format>image/svg+xml</dc:format>
        <dc:type
           rdf:resource="http://purl.org/dc/dcmitype/StillImage" />
        <dc:title />
      </cc:Work>
    </rdf:RDF>
  </metadata>
  <defs
     id="defs18382" />
  <g
     aria-label="Open Your Windows To Freedom"
     style="font-style:normal;font-variant:normal;font-weight:normal;font-stretch:normal;font-size:16px;line-height:1.25;font-family:'AvantGarde Bk BT';-inkscape-font-specification:'AvantGarde Bk BT';letter-spacing:0px;word-spacing:0px;fill:#ffffff;fill-opacity:1;stroke:none;"
     id="text4497">
    <path
       d="m 24.0625,80.3125 q 0,24.9375 16.21875,41.8125 Q 56.5,139 80.3125,139 q 23.25,0 39.28125,-17.0625 16.03125,-17.0625 16.03125,-42 0,-23.25 -16.5,-40.03125 -16.5,-16.875 -39.75,-16.875 -9.46875,0 -18.28125,3.28125 -8.71875,3.1875 -16.125,9.46875 -9.75,8.25 -15.375,20.15625 -5.53125,11.90625 -5.53125,24.375 z M 10,80.125 Q 10,65.875 15.4375,52.9375 20.96875,40 31.375,29.78125 41.40625,19.9375 53.40625,14.96875 65.5,10 79.5625,10 q 14.34375,0 26.53125,5.0625 12.28125,4.96875 22.40625,14.90625 10.40625,10.21875 15.65625,22.875 5.25,12.65625 5.25,27.28125 0,14.53125 -4.5,26.71875 -4.5,12.09375 -13.5,22.03125 Q 121,140.3125 107.875,146.125 q -13.125,5.8125 -28.5,5.8125 -29.4375,0 -49.40625,-20.625 Q 10,110.59375 10,80.125 Z"
       style="font-style:normal;font-variant:normal;font-weight:normal;font-stretch:normal;font-size:192px;font-family:'AvantGarde Bk BT';-inkscape-font-specification:'AvantGarde Bk BT';text-align:center;text-anchor:middle;fill:#ffffff;"
       id="path4507" />
    <path
       d="m 165.625,46.09375 h 13.03125 v 16.875 q 5.625,-8.71875 16.03125,-13.875 10.5,-5.25 22.3125,-5.25 23.34375,0 38.625,15.5625 Q 271,74.875 271,98.125 q 0,22.6875 -15.1875,38.25 -15.09375,15.5625 -37.78125,15.5625 -12.5625,0 -22.6875,-4.875 -10.03125,-4.875 -16.6875,-14.15625 v 7.125 15.375 27.1875 H 165.625 Z M 178.65625,97 q 0,17.625 11.625,30.1875 11.625,12.46875 27.375,12.46875 16.21875,0 27.84375,-11.8125 11.625,-11.90625 11.625,-29.15625 0,-18.09375 -11.71875,-30.28125 Q 233.78125,56.125 217.1875,56.125 q -15.28125,0 -26.90625,12.28125 Q 178.65625,80.6875 178.65625,97 Z"
       style="font-style:normal;font-variant:normal;font-weight:normal;font-stretch:normal;font-size:192px;font-family:'AvantGarde Bk BT';-inkscape-font-specification:'AvantGarde Bk BT';text-align:center;text-anchor:middle;fill:#ffffff;"
       id="path4509" />
    <path
       d="M 388.28125,101.78125 H 295.1875 q 1.21875,16.875 12.1875,27.28125 10.96875,10.40625 27.375,10.40625 11.625,0 20.90625,-6 Q 364.9375,127.375 370,116.59375 h 15 q -7.125,17.15625 -20.0625,26.34375 -12.84375,9.1875 -29.8125,9.1875 -22.5,0 -38.0625,-16.03125 Q 281.5,120.0625 281.5,97.5625 q 0,-23.53125 15.1875,-38.90625 15.28125,-15.375 39,-15.375 23.25,0 37.875,16.03125 14.71875,15.9375 14.71875,41.53125 z M 373.65625,90.625 Q 369.90625,73.28125 359.875,64.5625 349.84375,55.75 333.71875,55.75 q -15,0 -25.40625,9.46875 -10.40625,9.375 -12.75,25.40625 z"
       style="font-style:normal;font-variant:normal;font-weight:normal;font-stretch:normal;font-size:192px;font-family:'AvantGarde Bk BT';-inkscape-font-specification:'AvantGarde Bk BT';text-align:center;text-anchor:middle;fill:#ffffff;"
       id="path4511" />
    <path
       d="m 403.375,46.09375 h 12.84375 V 57.8125 q 6.09375,-7.03125 14.0625,-10.40625 8.0625,-3.375 18.375,-3.375 11.34375,0 20.15625,4.21875 8.90625,4.21875 14.0625,12.09375 3.5625,5.53125 5.0625,13.03125 1.59375,7.40625 1.59375,21.9375 v 53.90625 H 476.5 v -57.75 q 0,-18.28125 -7.03125,-26.53125 -6.9375,-8.25 -22.3125,-8.25 -9,0 -15.84375,3.65625 -6.75,3.5625 -10.6875,10.3125 -2.4375,4.21875 -3.46875,9.65625 -0.9375,5.34375 -0.9375,18.75 v 50.15625 H 403.375 Z"
       style="font-style:normal;font-variant:normal;font-weight:normal;font-stretch:normal;font-size:192px;font-family:'AvantGarde Bk BT';-inkscape-font-specification:'AvantGarde Bk BT';text-align:center;text-anchor:middle;fill:#ffffff;"
       id="path4513" />
    <path
       d="m 606.625,99.0625 v 50.15625 H 593.40625 V 98.875 L 549.8125,12.71875 h 15.375 l 34.875,70.875 35.34375,-70.875 h 15 z"
       style="font-style:normal;font-variant:normal;font-weight:normal;font-stretch:normal;font-size:192px;font-family:'AvantGarde Bk BT';-inkscape-font-specification:'AvantGarde Bk BT';text-align:center;text-anchor:middle;fill:#ffffff;"
       id="path4515" />
    <path
       d="m 652.1875,97.5625 q 0,17.8125 11.34375,29.90625 11.34375,12 28.21875,12 16.59375,0 27.84375,-12 11.25,-12.09375 11.25,-30.09375 0,-18.28125 -11.4375,-30 -11.34375,-11.8125 -28.875,-11.8125 -15.75,0 -27.09375,12.09375 -11.25,12.09375 -11.25,29.90625 z m -13.875,0.1875 q 0,-22.6875 15.5625,-38.8125 15.5625,-16.125 36.84375,-16.125 22.40625,0 38.15625,15.84375 15.84375,15.84375 15.84375,37.78125 0,23.0625 -15.46875,39.375 -15.46875,16.3125 -37.5,16.3125 -22.40625,0 -37.96875,-15.9375 Q 638.3125,120.15625 638.3125,97.75 Z"
       style="font-style:normal;font-variant:normal;font-weight:normal;font-stretch:normal;font-size:192px;font-family:'AvantGarde Bk BT';-inkscape-font-specification:'AvantGarde Bk BT';text-align:center;text-anchor:middle;fill:#ffffff;"
       id="path4517" />
    <path
       d="m 760,46.09375 h 13.03125 v 54.75 q 0,21.09375 6.84375,29.90625 6.84375,8.71875 22.5,8.71875 8.90625,0 15.65625,-3.5625 6.75,-3.65625 10.875,-10.5 2.34375,-4.03125 3.375,-9.46875 1.03125,-5.53125 1.03125,-19.125 V 46.09375 h 13.21875 v 103.125 H 833.3125 V 138.0625 q -6,7.3125 -13.40625,10.59375 Q 812.5,151.9375 802,151.9375 q -22.3125,0 -32.15625,-12 Q 760,127.84375 760,99.90625 Z"
       style="font-style:normal;font-variant:normal;font-weight:normal;font-stretch:normal;font-size:192px;font-family:'AvantGarde Bk BT';-inkscape-font-specification:'AvantGarde Bk BT';text-align:center;text-anchor:middle;fill:#ffffff;"
       id="path4519" />
    <path
       d="M 880.84375,149.21875 H 867.4375 v -103.125 h 12.46875 V 58 q 4.875,-6.84375 10.59375,-10.03125 5.8125,-3.1875 13.5,-3.375 l 0.0937,14.34375 q -12.46875,1.125 -17.90625,7.5 -5.34375,6.28125 -5.34375,20.53125 z"
       style="font-style:normal;font-variant:normal;font-weight:normal;font-stretch:normal;font-size:192px;font-family:'AvantGarde Bk BT';-inkscape-font-specification:'AvantGarde Bk BT';text-align:center;text-anchor:middle;fill:#ffffff;"
       id="path4521" />
    <path
       d="m 1043.6875,12.71875 27.4688,111.9375 34.125,-111.9375 h 13.125 l -42.2813,136.5 h -11.1562 l -27.375,-111.375 -27.4688,111.375 H 998.96875 L 956.5,12.71875 h 13.3125 l 33.9375,111.9375 27.6563,-111.9375 z"
       style="font-style:normal;font-variant:normal;font-weight:normal;font-stretch:normal;font-size:192px;font-family:'AvantGarde Bk BT';-inkscape-font-specification:'AvantGarde Bk BT';text-align:center;text-anchor:middle;fill:#ffffff;"
       id="path4523" />
    <path
       d="m 1139.4063,34 h -13.2188 V 12.71875 h 13.2188 z m -13.2188,115.21875 v -103.125 h 13.2188 v 103.125 z"
       style="font-style:normal;font-variant:normal;font-weight:normal;font-stretch:normal;font-size:192px;font-family:'AvantGarde Bk BT';-inkscape-font-specification:'AvantGarde Bk BT';text-align:center;text-anchor:middle;fill:#ffffff;"
       id="path4525" />
    <path
       d="m 1160.875,46.09375 h 12.8438 V 57.8125 q 6.0937,-7.03125 14.0625,-10.40625 8.0625,-3.375 18.375,-3.375 11.3437,0 20.1562,4.21875 8.9063,4.21875 14.0625,12.09375 3.5625,5.53125 5.0625,13.03125 1.5938,7.40625 1.5938,21.9375 v 53.90625 H 1234 v -57.75 q 0,-18.28125 -7.0312,-26.53125 -6.9375,-8.25 -22.3125,-8.25 -9,0 -15.8438,3.65625 -6.75,3.5625 -10.6875,10.3125 -2.4375,4.21875 -3.4687,9.65625 -0.9375,5.34375 -0.9375,18.75 v 50.15625 h -12.8438 z"
       style="font-style:normal;font-variant:normal;font-weight:normal;font-stretch:normal;font-size:192px;font-family:'AvantGarde Bk BT';-inkscape-font-specification:'AvantGarde Bk BT';text-align:center;text-anchor:middle;fill:#ffffff;"
       id="path4527" />
    <path
       d="m 1355.2188,98.6875 q 0,-17.625 -11.7188,-30.09375 -11.625,-12.46875 -27.375,-12.46875 -16.3125,0 -27.9375,11.90625 -11.625,11.8125 -11.625,28.96875 0,18.09375 11.625,30.375 11.7188,12.28125 28.3125,12.28125 15.2813,0 27,-12.28125 11.7188,-12.28125 11.7188,-28.6875 z m -0.375,-36.28125 V 39.4375 12.71875 h 13.3125 v 136.5 h -13.3125 v -15.5625 q -6.9375,8.625 -17.25,13.5 -10.3125,4.78125 -21.8438,4.78125 -22.3125,0 -37.5937,-15.75 -15.2813,-15.75 -15.2813,-38.625 0,-22.6875 15.0938,-38.15625 15.0937,-15.5625 37.7812,-15.5625 12.1875,0 22.125,4.78125 10.0313,4.6875 16.9688,13.78125 z"
       style="font-style:normal;font-variant:normal;font-weight:normal;font-stretch:normal;font-size:192px;font-family:'AvantGarde Bk BT';-inkscape-font-specification:'AvantGarde Bk BT';text-align:center;text-anchor:middle;fill:#ffffff;"
       id="path4529" />
    <path
       d="m 1397.5,97.5625 q 0,17.8125 11.3438,29.90625 11.3437,12 28.2187,12 16.5938,0 27.8438,-12 11.25,-12.09375 11.25,-30.09375 0,-18.28125 -11.4375,-30 -11.3438,-11.8125 -28.875,-11.8125 -15.75,0 -27.0938,12.09375 Q 1397.5,79.75 1397.5,97.5625 Z m -13.875,0.1875 q 0,-22.6875 15.5625,-38.8125 15.5625,-16.125 36.8438,-16.125 22.4062,0 38.1562,15.84375 15.8438,15.84375 15.8438,37.78125 0,23.0625 -15.4688,39.375 -15.4687,16.3125 -37.5,16.3125 -22.4062,0 -37.9687,-15.9375 Q 1383.625,120.15625 1383.625,97.75 Z"
       style="font-style:normal;font-variant:normal;font-weight:normal;font-stretch:normal;font-size:192px;font-family:'AvantGarde Bk BT';-inkscape-font-specification:'AvantGarde Bk BT';text-align:center;text-anchor:middle;fill:#ffffff;"
       id="path4531" />
    <path
       d="m 1590.1563,123.34375 24.9375,-77.25 h 14.0625 l -34.7813,103.125 h -8.625 l -24.1875,-78.5625 -23.8125,78.5625 h -8.625 l -34.7812,-103.125 h 13.7812 l 25.2188,77.25 23.625,-77.25 h 9.5625 z"
       style="font-style:normal;font-variant:normal;font-weight:normal;font-stretch:normal;font-size:192px;font-family:'AvantGarde Bk BT';-inkscape-font-specification:'AvantGarde Bk BT';text-align:center;text-anchor:middle;fill:#ffffff;"
       id="path4533" />
    <path
       d="m 1632.0625,116.78125 h 13.5938 v 0.375 q 0,9.65625 5.5312,16.03125 5.5313,6.28125 13.6875,6.28125 7.7813,0 12.9375,-4.875 5.1563,-4.875 5.1563,-12.28125 0,-7.40625 -4.125,-11.90625 -4.0313,-4.5 -14.7188,-8.4375 Q 1646.9688,95.875 1641.7188,89.5 q -5.25,-6.375 -5.25,-17.0625 0,-12.09375 8.7187,-20.53125 8.8125,-8.4375 21.2813,-8.4375 13.2187,0 21,7.5 7.7812,7.5 8.3437,20.90625 h -14.1562 q -0.4688,-7.3125 -4.6875,-11.34375 Q 1672.8438,56.5 1665.625,56.5 q -6.4687,0 -10.7812,4.40625 -4.3125,4.3125 -4.3125,10.78125 0,4.59375 1.7812,7.78125 1.7813,3.09375 5.9063,5.625 3.75,2.34375 10.875,4.5 7.2187,2.15625 9.6562,3.1875 9.6563,4.125 14.1563,10.96875 4.5937,6.84375 4.5937,17.4375 0,13.3125 -9.2812,22.03125 -9.2813,8.71875 -23.5313,8.71875 -14.5312,0 -23.3437,-9.46875 -8.8125,-9.5625 -9.2813,-25.6875 z"
       style="font-style:normal;font-variant:normal;font-weight:normal;font-stretch:normal;font-size:192px;font-family:'AvantGarde Bk BT';-inkscape-font-specification:'AvantGarde Bk BT';text-align:center;text-anchor:middle;fill:#ffffff;"
       id="path4535" />
    <path
       d="M 385.09375,389.21875 H 371.6875 V 266.125 H 344.40625 V 252.71875 H 412.375 V 266.125 h -27.28125 z"
       style="font-style:normal;font-variant:normal;font-weight:normal;font-stretch:normal;font-size:192px;font-family:'AvantGarde Bk BT';-inkscape-font-specification:'AvantGarde Bk BT';text-align:center;text-anchor:middle;fill:#ffffff;"
       id="path4537" />
    <path
       d="m 424.9375,337.5625 q 0,17.8125 11.34375,29.90625 11.34375,12 28.21875,12 16.59375,0 27.84375,-12 11.25,-12.09375 11.25,-30.09375 0,-18.28125 -11.4375,-30 -11.34375,-11.8125 -28.875,-11.8125 -15.75,0 -27.09375,12.09375 -11.25,12.09375 -11.25,29.90625 z m -13.875,0.1875 q 0,-22.6875 15.5625,-38.8125 15.5625,-16.125 36.84375,-16.125 22.40625,0 38.15625,15.84375 15.84375,15.84375 15.84375,37.78125 0,23.0625 -15.46875,39.375 -15.46875,16.3125 -37.5,16.3125 -22.40625,0 -37.96875,-15.9375 Q 411.0625,360.15625 411.0625,337.75 Z"
       style="font-style:normal;font-variant:normal;font-weight:normal;font-stretch:normal;font-size:192px;font-family:'AvantGarde Bk BT';-inkscape-font-specification:'AvantGarde Bk BT';text-align:center;text-anchor:middle;fill:#ffffff;"
       id="path4539" />
    <path
       d="m 589.5625,389.21875 v -136.5 h 67.40625 V 266.125 h -54.1875 v 47.8125 h 54.1875 v 13.5 h -54.1875 v 61.78125 z"
       style="font-style:normal;font-variant:normal;font-weight:normal;font-stretch:normal;font-size:192px;font-family:'AvantGarde Bk BT';-inkscape-font-specification:'AvantGarde Bk BT';text-align:center;text-anchor:middle;fill:#ffffff;"
       id="path4541" />
    <path
       d="M 690.53125,389.21875 H 677.125 v -103.125 h 12.46875 V 298 q 4.875,-6.84375 10.59375,-10.03125 5.8125,-3.1875 13.5,-3.375 l 0.0937,14.34375 q -12.46875,1.125 -17.90625,7.5 -5.34375,6.28125 -5.34375,20.53125 z"
       style="font-style:normal;font-variant:normal;font-weight:normal;font-stretch:normal;font-size:192px;font-family:'AvantGarde Bk BT';-inkscape-font-specification:'AvantGarde Bk BT';text-align:center;text-anchor:middle;fill:#ffffff;"
       id="path4543" />
    <path
       d="M 826.65625,341.78125 H 733.5625 q 1.21875,16.875 12.1875,27.28125 10.96875,10.40625 27.375,10.40625 11.625,0 20.90625,-6 9.28125,-6.09375 14.34375,-16.875 h 15 Q 816.25,373.75 803.3125,382.9375 790.46875,392.125 773.5,392.125 q -22.5,0 -38.0625,-16.03125 -15.5625,-16.03125 -15.5625,-38.53125 0,-23.53125 15.1875,-38.90625 15.28125,-15.375 39,-15.375 23.25,0 37.875,16.03125 14.71875,15.9375 14.71875,41.53125 z m -14.625,-11.15625 q -3.75,-17.34375 -13.78125,-26.0625 -10.03125,-8.8125 -26.15625,-8.8125 -15,0 -25.40625,9.46875 -10.40625,9.375 -12.75,25.40625 z"
       style="font-style:normal;font-variant:normal;font-weight:normal;font-stretch:normal;font-size:192px;font-family:'AvantGarde Bk BT';-inkscape-font-specification:'AvantGarde Bk BT';text-align:center;text-anchor:middle;fill:#ffffff;"
       id="path4545" />
    <path
       d="M 942.90625,341.78125 H 849.8125 q 1.21875,16.875 12.1875,27.28125 10.96875,10.40625 27.375,10.40625 11.625,0 20.90625,-6 9.28125,-6.09375 14.34375,-16.875 h 15 Q 932.5,373.75 919.5625,382.9375 q -12.84375,9.1875 -29.8125,9.1875 -22.5,0 -38.0625,-16.03125 -15.5625,-16.03125 -15.5625,-38.53125 0,-23.53125 15.1875,-38.90625 15.28125,-15.375 39,-15.375 23.25,0 37.875,16.03125 14.71875,15.9375 14.71875,41.53125 z m -14.625,-11.15625 q -3.75,-17.34375 -13.78125,-26.0625 -10.03125,-8.8125 -26.15625,-8.8125 -15,0 -25.40625,9.46875 -10.40625,9.375 -12.75,25.40625 z"
       style="font-style:normal;font-variant:normal;font-weight:normal;font-stretch:normal;font-size:192px;font-family:'AvantGarde Bk BT';-inkscape-font-specification:'AvantGarde Bk BT';text-align:center;text-anchor:middle;fill:#ffffff;"
       id="path4547" />
    <path
       d="m 1045.0938,338.6875 q 0,-17.625 -11.7188,-30.09375 Q 1021.75,296.125 1006,296.125 q -16.3125,0 -27.9375,11.90625 -11.625,11.8125 -11.625,28.96875 0,18.09375 11.625,30.375 11.71875,12.28125 28.3125,12.28125 15.2812,0 27,-12.28125 11.7188,-12.28125 11.7188,-28.6875 z m -0.375,-36.28125 V 279.4375 252.71875 h 13.3125 v 136.5 h -13.3125 v -15.5625 q -6.9375,8.625 -17.25,13.5 -10.3126,4.78125 -21.8438,4.78125 -22.3125,0 -37.59375,-15.75 -15.28125,-15.75 -15.28125,-38.625 0,-22.6875 15.09375,-38.15625 15.09375,-15.5625 37.78125,-15.5625 12.1875,0 22.125,4.78125 10.0313,4.6875 16.9688,13.78125 z"
       style="font-style:normal;font-variant:normal;font-weight:normal;font-stretch:normal;font-size:192px;font-family:'AvantGarde Bk BT';-inkscape-font-specification:'AvantGarde Bk BT';text-align:center;text-anchor:middle;fill:#ffffff;"
       id="path4549" />
    <path
       d="m 1087.375,337.5625 q 0,17.8125 11.3438,29.90625 11.3437,12 28.2187,12 16.5938,0 27.8438,-12 11.25,-12.09375 11.25,-30.09375 0,-18.28125 -11.4375,-30 -11.3438,-11.8125 -28.875,-11.8125 -15.75,0 -27.0938,12.09375 -11.25,12.09375 -11.25,29.90625 z M 1073.5,337.75 q 0,-22.6875 15.5625,-38.8125 15.5625,-16.125 36.8438,-16.125 22.4062,0 38.1562,15.84375 15.8438,15.84375 15.8438,37.78125 0,23.0625 -15.4688,39.375 -15.4687,16.3125 -37.5,16.3125 -22.4062,0 -37.9687,-15.9375 Q 1073.5,360.15625 1073.5,337.75 Z"
       style="font-style:normal;font-variant:normal;font-weight:normal;font-stretch:normal;font-size:192px;font-family:'AvantGarde Bk BT';-inkscape-font-specification:'AvantGarde Bk BT';text-align:center;text-anchor:middle;fill:#ffffff;"
       id="path4551" />
    <path
       d="m 1276.375,302.21875 q 6.2813,-8.90625 15.5625,-13.5 9.375,-4.6875 20.9063,-4.6875 21,0 30.5625,12.65625 9.5625,12.5625 9.5625,40.5 v 52.03125 h -12.6563 v -54.75 q 0,-20.4375 -6.75,-29.0625 -6.75,-8.71875 -22.0312,-8.71875 -8.8125,0 -15.5625,3.65625 -6.6563,3.5625 -10.5938,10.3125 -2.3437,4.21875 -3.375,9.65625 -1.0312,5.34375 -1.0312,18.75 v 50.15625 H 1268.5 v -57.75 q 0,-17.8125 -7.2187,-26.25 -7.2188,-8.53125 -22.125,-8.53125 -9,0 -15.8438,3.65625 -6.75,3.5625 -10.6875,10.3125 -2.4375,4.21875 -3.4687,9.65625 -0.9375,5.34375 -0.9375,18.75 v 50.15625 h -13.0313 v -103.125 h 13.0313 v 11.71875 q 5.9062,-6.84375 13.875,-10.3125 8.0625,-3.46875 18.1875,-3.46875 11.7187,0 21.375,4.96875 9.6562,4.875 14.7187,13.21875 z"
       style="font-style:normal;font-variant:normal;font-weight:normal;font-stretch:normal;font-size:192px;font-family:'AvantGarde Bk BT';-inkscape-font-specification:'AvantGarde Bk BT';text-align:center;text-anchor:middle;fill:#ffffff;"
       id="path4553" />
  </g>
</svg>
