<?xml version="1.0" encoding="UTF-8" standalone="no"?>
<!-- Created with Inkscape (http://www.inkscape.org/) -->

<svg
   xmlns:dc="http://purl.org/dc/elements/1.1/"
   xmlns:cc="http://creativecommons.org/ns#"
   xmlns:rdf="http://www.w3.org/1999/02/22-rdf-syntax-ns#"
   xmlns:svg="http://www.w3.org/2000/svg"
   xmlns="http://www.w3.org/2000/svg"
   xmlns:sodipodi="http://sodipodi.sourceforge.net/DTD/sodipodi-0.dtd"
   xmlns:inkscape="http://www.inkscape.org/namespaces/inkscape"
   width="640"
   height="178.38934"
   id="svg2"
   sodipodi:version="0.32"
   inkscape:version="0.92.1 r15371"
   sodipodi:docname="ReactOS_Text.svg"
   inkscape:output_extension="org.inkscape.output.svg.inkscape"
   version="1.0"
   inkscape:export-filename="/home/benutzername/Desktop/Dsk/ros_logo/Orginallogo/logo&amp;notext&amp;fullyvectorized_vereinf_smooth.png"
   inkscape:export-xdpi="720.06775"
   inkscape:export-ydpi="720.06775"
   viewBox="0 0 600 167.24001">
  <sodipodi:namedview
     id="base"
     pagecolor="#353f55"
     bordercolor="#666666"
     borderopacity="1.0"
     inkscape:pageopacity="0"
     inkscape:pageshadow="2"
     inkscape:zoom="2"
     inkscape:cx="321.7814"
     inkscape:cy="165.5"
     inkscape:document-units="px"
     inkscape:current-layer="svg2"
     inkscape:window-width="2560"
     inkscape:window-height="1521"
     inkscape:window-x="2091"
     inkscape:window-y="-9"
     width="331px"
     height="331px"
     showgrid="false"
     showguides="true"
     inkscape:guide-bbox="true"
     inkscape:window-maximized="1" />
  <defs
     id="defs4" />
  <metadata
     id="metadata7">
    <rdf:RDF>
      <cc:Work
         rdf:about="">
        <dc:format>image/svg+xml</dc:format>
        <dc:type
           rdf:resource="http://purl.org/dc/dcmitype/StillImage" />
        <dc:title></dc:title>
        <dc:date>2008-04-12</dc:date>
        <dc:creator>
          <cc:Agent>
            <dc:title>Krzysztof Blaszczyk (ROSFan, chr_bl@web.de)</dc:title>
          </cc:Agent>
        </dc:creator>
        <dc:rights>
          <cc:Agent>
            <dc:title>Published under GPLv2 or any later version or CC-BY-SA 3.0</dc:title>
          </cc:Agent>
        </dc:rights>
      </cc:Work>
    </rdf:RDF>
  </metadata>
  <g
     transform="translate(-2.416002,-81.679778)"
     id="g3191"
     inkscape:label="Ebene 1"
     style="fill:#ffffff">
    <g
       transform="matrix(0.996297,0,0,1,-99.53402,-71.8889)"
       id="g2564"
       style="fill:#ffffff">
      <g
         id="g6643"
         transform="matrix(0.7446541,0,0,0.7446541,124.05379,843.43751)"
         style="fill:#ffffff">
        <path
           style="font-style:normal;font-variant:normal;font-weight:normal;font-stretch:normal;font-size:12px;line-height:125%;font-family:'Century Gothic';text-align:start;writing-mode:lr-tb;text-anchor:start;fill:#ffffff;fill-opacity:1;fill-rule:nonzero;stroke:none;stroke-width:10;stroke-miterlimit:4;stroke-dashoffset:0;stroke-opacity:1"
           id="text1542"
           sodipodi:nodetypes="cccccszcczzccccccczzcc"
           d="m 8.8633677,-880.71377 v 136.46745 H 21.504596 v -123.10515 h 22.270545 c 8.653606,1.1e-4 15.069163,0.55543 18.794258,2.16361 3.725033,1.60831 7.038009,2.37581 10.948792,6.39142 3.997704,4.10486 5.720082,6.48729 7.958907,13.69891 1.305525,4.70727 0.70767,11.90734 -1.741521,17.78418 -1.523459,3.82438 -5.875003,9.52013 -11.366483,12.80368 -5.49147,3.28355 -11.006008,3.06428 -19.5091,3.25791 -8.503092,0.19362 -9.534322,0.18778 -9.534322,0.18778 l 39.810175,66.81766 h 16.831084 l -33.043074,-54.1107 c 6.910249,-0.76709 14.008978,-4.67265 15.98307,-6.10738 6.418089,-4.8751 9.575089,-6.99025 13.13607,-13.67688 2.73911,-6.15753 3.718114,-12.96229 3.9214,-19.6455 0.203268,-10.56232 -4.132563,-23.00327 -12.418848,-31.01458 -8.406679,-8.12769 -13.270023,-8.99357 -19.516664,-10.5399 -6.246665,-1.54631 -15.93036,-1.37236 -29.971,-1.37251 z"
           inkscape:connector-curvature="0" />
        <path
           style="font-style:normal;font-variant:normal;font-weight:normal;font-stretch:normal;font-size:12px;line-height:125%;font-family:'Century Gothic';text-align:start;writing-mode:lr-tb;text-anchor:start;fill:#ffffff;fill-opacity:1;fill-rule:nonzero;stroke:none;stroke-width:10;stroke-miterlimit:4;stroke-dashoffset:0;stroke-opacity:1"
           id="path3381"
           sodipodi:nodetypes="ccscscsccscsccccsccssccccc"
           d="m 157.05326,-850.64901 c -16.30538,0.39632 -29.3888,6.93479 -39.23579,19.61313 -8.01812,10.29209 -12.01292,22.0214 -12.01292,35.17226 0,13.97691 4.72249,26.52295 14.19271,37.64089 9.47012,11.05436 22.61142,16.57833 39.4053,16.57831 7.5761,0 14.37088,-1.13268 20.36869,-3.41984 5.99772,-2.35063 11.60867,-5.50873 16.1787,-10.19158 5.27636,-5.40661 9.98567,-14.38675 13.6476,-21.62945 l -14.51308,0.0849 c -4.04065,6.79795 -5.90097,9.58124 -9.37327,12.63055 -3.47253,3.04966 -7.22528,5.73543 -12.21284,7.57778 -4.92456,1.8424 -9.99404,2.76306 -15.23413,2.76306 -10.8592,0 -19.98145,-3.86319 -27.36817,-11.55045 -7.38676,-7.75086 -11.20333,-14.28542 -11.45588,-26.35636 l 93.09408,0.23984 c -0.12643,-14.16735 -4.38745,-29.59802 -11.83724,-39.06429 -10.48048,-13.40492 -24.49395,-20.0886 -42.04528,-20.08874 -0.53268,10e-6 -1.07251,-0.0128 -1.59848,0 z m 1.55007,12.75079 c 0.0787,-3.9e-4 0.13904,0 0.21796,0 6.12398,0 11.97905,1.31344 17.53502,3.9181 5.55569,2.60499 9.9988,6.02562 13.34498,10.28218 3.40916,4.25659 6.72406,11.88002 8.25277,20.67416 l -77.89918,0.47967 c 0.80173,-12.40767 7.42699,-20.75992 12.73032,-25.5249 7.20372,-6.49232 15.81746,-9.77849 25.81813,-9.82921 z"
           inkscape:connector-curvature="0" />
        <path
           style="font-style:normal;font-variant:normal;font-weight:normal;font-stretch:normal;font-size:12px;line-height:125%;font-family:'Century Gothic';text-align:start;writing-mode:lr-tb;text-anchor:start;fill:#ffffff;fill-opacity:1;fill-rule:nonzero;stroke:none;stroke-width:10;stroke-miterlimit:4;stroke-dashoffset:0;stroke-opacity:1"
           id="path3443"
           d="m 276.01965,-850.17452 c -13.75291,0.35912 -25.62011,5.64596 -35.49836,15.85395 -10.23832,10.58021 -15.34174,23.37035 -15.34174,38.25675 0,15.20029 5.05187,28.16391 15.16667,38.808 10.1763,10.58034 22.47476,15.85397 36.81148,15.85395 8.06902,0 15.04193,-0.60085 22.11159,-3.7217 6.81793,-3.00971 12.48924,-8.12483 18.13593,-14.2115 v 15.04465 c -7.2e-4,0.0645 0.0204,0.13075 0.0657,0.1764 0.0453,0.0456 0.11102,0.0669 0.17509,0.0661 H 330.449 c 0.0641,7.2e-4 0.12978,-0.0205 0.1751,-0.0661 0.0453,-0.0457 0.0664,-0.11186 0.0656,-0.1764 v -103.0176 c 7.4e-4,-0.0645 -0.0203,-0.13076 -0.0656,-0.1764 -0.0453,-0.0457 -0.11103,-0.0669 -0.1751,-0.0661 h -12.80304 c -0.0641,-7.3e-4 -0.12977,0.0205 -0.17509,0.0661 -0.0453,0.0456 -0.0664,0.11185 -0.0657,0.1764 v 16.23535 c -4.989,-6.91832 -10.19542,-10.7563 -16.7712,-14.28365 -6.71895,-3.60414 -14.80943,-4.81806 -23.12614,-4.8182 -0.50011,0 -0.98108,-0.0132 -1.48823,0 z m 1.31312,13.2741 c 0.38316,-0.0107 0.80387,0 1.20373,0 11.19378,2e-5 20.5861,3.97833 28.21047,11.9511 7.68524,7.97244 11.51169,17.86938 11.51179,29.74545 -10e-5,7.79037 -1.70229,14.7809 -5.1431,20.9916 -0.007,-3.4e-4 -0.0146,-3.4e-4 -0.0219,0 -3.37897,6.20968 -8.22189,11.13297 -14.55389,14.7735 -6.33357,3.64141 -13.04496,5.44637 -20.11279,5.44635 -7.00584,-2e-5 -13.54969,-1.80597 -19.69701,-5.44635 -6.08354,-3.70157 -10.92495,-8.8631 -14.55389,-15.45705 -3.62914,-6.59435 -5.44952,-13.48743 -5.44951,-20.70495 -2e-5,-7.28127 1.79483,-14.19627 5.36197,-20.727 3.6282,-6.52974 8.44879,-11.55019 14.53201,-15.1263 0.007,3.3e-4 0.0146,3.3e-4 0.0219,0 5.75183,-3.44036 11.94978,-5.25818 18.69023,-5.44635 z"
           sodipodi:nodetypes="csscssccsccsccsccsccssccscsccsscsscccc"
           inkscape:connector-curvature="0" />
        <path
           style="font-style:normal;font-variant:normal;font-weight:normal;font-stretch:normal;font-size:12px;line-height:125%;font-family:'Century Gothic';text-align:start;writing-mode:lr-tb;text-anchor:start;fill:#ffffff;fill-opacity:1;fill-rule:nonzero;stroke:none;stroke-width:10;stroke-miterlimit:4;stroke-dashoffset:0;stroke-opacity:1"
           id="path3448"
           sodipodi:nodetypes="cscssscccsccscsccscc"
           d="m 396.16866,-850.21862 c -9.85342,1.4e-4 -18.78533,2.40923 -26.75545,7.2324 -7.96915,4.82272 -14.23561,11.55189 -18.81894,20.17575 -4.52611,8.56058 -6.7933,17.85692 -6.79328,27.8712 -1e-5,14.89299 4.88015,27.57063 14.61985,37.9701 9.74233,10.40255 22.02501,15.61142 36.80248,15.6114 9.61911,0 18.20791,-2.04468 25.72216,-6.10785 7.56846,-4.12506 17.64208,-11.59875 23.74463,-28.71677 0,0 -14.10009,-0.26328 -14.19747,-0.142 -6.71297,15.83422 -21.13946,22.28789 -34.74168,22.28787 -7.42382,0 -14.11596,-1.81253 -20.11606,-5.44635 -5.94323,-3.63355 -10.65709,-8.73848 -14.11419,-15.32475 -3.40133,-6.58817 -5.10051,-13.61309 -5.10048,-21.0798 -2e-5,-11.48806 3.70006,-21.2093 11.12428,-29.2383 7.47842,-8.02629 16.83828,-12.03914 28.11849,-12.0393 14.11841,1.6e-4 24.85296,5.78103 34.25186,21.47513 0.04,0.0652 9.22104,0.13297 14.75326,0.10827 -2.91564,-11.31501 -11.87493,-19.93323 -15.89608,-23.3033 -4.02064,-3.36927 -8.94466,-6.11043 -14.7298,-8.2026 -5.73323,-2.09394 -11.6841,-3.13095 -17.87358,-3.1311 z"
           inkscape:connector-curvature="0" />
        <path
           style="font-style:normal;font-variant:normal;font-weight:normal;font-stretch:normal;font-size:12px;line-height:125%;font-family:'Century Gothic';text-align:start;writing-mode:lr-tb;text-anchor:start;fill:#ffffff;fill-opacity:1;fill-rule:nonzero;stroke:none;stroke-width:10;stroke-miterlimit:4;stroke-dashoffset:0;stroke-opacity:1"
           id="path3371"
           sodipodi:nodetypes="ccccccccccccc"
           d="m 473.24926,-881.9467 h 13.07733 v 34.63548 l 19.56212,-0.23983 v 13.66444 h -19.56212 v 89.40903 h -13.31648 v -89.40903 l -19.7668,0.23983 v -13.66444 H 472.771 v -34.63548"
           inkscape:connector-curvature="0" />
        <path
           style="font-style:normal;font-variant:normal;font-weight:normal;font-stretch:normal;font-size:12px;line-height:125%;font-family:'Century Gothic';text-align:start;writing-mode:lr-tb;text-anchor:start;fill:#ffffff;fill-opacity:1;fill-rule:nonzero;stroke:none;stroke-width:10;stroke-miterlimit:4;stroke-dashoffset:0;stroke-opacity:1"
           id="path3369"
           d="m 579.50943,-884.15357 c -11.92436,0.14589 -23.02886,3.34834 -33.3084,9.5697 -10.52627,6.30931 -18.83312,15.04413 -24.9585,26.2395 -6.066,11.19558 -9.10276,23.35789 -9.10275,36.4707 -10e-6,19.66959 6.67261,36.44083 20.05348,50.29605 13.38078,13.85522 29.80844,20.77112 49.25534,20.7711 19.20885,0 35.47759,-6.96418 48.79907,-20.88135 13.38065,-13.91702 20.05339,-30.86856 20.05349,-50.8473 -1.3e-4,-20.16435 -6.67284,-37.14214 -20.05349,-50.9355 -13.38097,-13.79332 -30.0083,-20.68281 -49.87134,-20.6829 -0.28711,0 -0.58073,-0.004 -0.8669,0 z m 0.59316,13.3623 c 0.30194,-0.005 0.58679,0 0.88973,0 9.87202,6e-5 19.2138,2.63649 28.01554,7.8939 8.80152,5.25766 15.62409,12.2746 20.44132,21.05775 4.87647,8.72148 7.30039,18.48012 7.30046,29.30445 -10e-5,10.88623 -2.42397,20.79444 -7.30046,29.70135 -4.81725,8.90694 -11.57621,15.92402 -20.25879,21.05775 -8.62331,5.13387 -18.0287,7.69544 -28.19807,7.69545 -15.22448,0 -28.23393,-5.5581 -39.05751,-16.69185 -10.76412,-11.19533 -16.15231,-24.89542 -16.15228,-41.1012 -3e-5,-10.9479 2.44666,-20.88248 7.32328,-29.78955 4.87656,-8.90678 11.64453,-15.97648 20.32722,-21.23415 8.41135,-5.09311 17.30933,-7.73468 26.66956,-7.8939 z"
           inkscape:connector-curvature="0" />
        <path
           style="font-style:normal;font-variant:normal;font-weight:normal;font-stretch:normal;font-size:12px;line-height:125%;font-family:'Century Gothic';text-align:start;writing-mode:lr-tb;text-anchor:start;fill:#ffffff;fill-opacity:1;fill-rule:nonzero;stroke:none;stroke-width:10;stroke-miterlimit:4;stroke-dashoffset:0;stroke-opacity:1"
           id="path3365"
           sodipodi:nodetypes="cscsszcsscsccccscsccsscscc"
           d="m 674.73859,-783.87386 c 0.65106,20.51 13.62883,28.60642 24.82453,28.60642 4.78892,0 9.28657,-1.03204 13.49312,-3.09647 4.20644,-2.12492 7.47683,-5.25328 9.37107,-8.94952 3.15674,-6.15961 5.74772,-17.69825 0.59903,-27.28551 -3.52114,-6.55665 -13.90239,-13.56377 -26.85367,-17.65568 -12.88461,-4.07084 -18.83921,-7.58597 -24.86007,-14.94795 -5.04778,-6.31424 -5.41953,-11.94561 -5.41951,-19.29226 -2e-5,-5.82854 2.44497,-16.17775 5.42188,-20.97435 2.97689,-4.79638 7.15104,-8.56069 12.52237,-11.29299 5.43608,-2.79279 11.32512,-4.18927 17.66724,-4.18935 6.7303,8e-5 13.00771,1.5787 18.83214,4.73585 5.88897,3.09649 15.44949,14.11057 14.81181,30.88363 l -12.12692,-0.10682 c -0.11058,-9.79651 -5.42272,-17.55607 -9.24085,-19.68138 -3.75358,-2.12491 -8.34121,-3.42716 -12.80653,-3.42734 -5.75969,1.8e-4 -10.96212,2.35902 -14.65087,5.63755 -8.40672,8.07539 -8.37587,18.09008 -6.60331,23.46056 0.94783,2.87177 3.41723,8.8252 10.6733,12.28284 8.33324,4.0986 13.52463,5.68312 18.92202,7.6315 16.18664,4.24386 25.62083,14.74164 27.34611,22.13987 1.84251,7.90111 2.23599,15.3598 1.3922,22.04579 -1.19573,9.47462 -5.14348,19.11323 -9.21244,23.39957 -7.83062,7.1643 -17.13697,11.94574 -28.39732,11.94574 -8.67187,0 -16.0565,-2.39522 -23.11044,-6.70604 -7.05395,-4.37145 -14.99256,-18.37283 -15.92466,-35.28856"
           inkscape:connector-curvature="0" />
      </g>
    </g>
  </g>
</svg>
