<?xml version="1.0" encoding="UTF-8" standalone="no"?>
<!-- Created with Inkscape (http://www.inkscape.org/) -->

<svg
   xmlns:dc="http://purl.org/dc/elements/1.1/"
   xmlns:cc="http://creativecommons.org/ns#"
   xmlns:rdf="http://www.w3.org/1999/02/22-rdf-syntax-ns#"
   xmlns:svg="http://www.w3.org/2000/svg"
   xmlns="http://www.w3.org/2000/svg"
   xmlns:xlink="http://www.w3.org/1999/xlink"
   xmlns:sodipodi="http://sodipodi.sourceforge.net/DTD/sodipodi-0.dtd"
   xmlns:inkscape="http://www.inkscape.org/namespaces/inkscape"
   width="600"
   height="167.24001"
   id="svg2"
   sodipodi:version="0.32"
   inkscape:version="0.48.4 r9939"
   sodipodi:docname="reactos_text_standard.svg"
   inkscape:output_extension="org.inkscape.output.svg.inkscape"
   version="1.0"
   inkscape:export-filename="/home/benutzername/Desktop/Dsk/ros_logo/Orginallogo/logo&amp;notext&amp;fullyvectorized_vereinf_smooth.png"
   inkscape:export-xdpi="720.06775"
   inkscape:export-ydpi="720.06775">
  <sodipodi:namedview
     id="base"
     pagecolor="#d1d1d1"
     bordercolor="#666666"
     borderopacity="1.0"
     inkscape:pageopacity="0"
     inkscape:pageshadow="2"
     inkscape:zoom="0.5"
     inkscape:cx="321.7814"
     inkscape:cy="165.5"
     inkscape:document-units="px"
     inkscape:current-layer="svg2"
     inkscape:window-width="912"
     inkscape:window-height="734"
     inkscape:window-x="37"
     inkscape:window-y="159"
     width="331px"
     height="331px"
     showgrid="false"
     showguides="true"
     inkscape:guide-bbox="true"
     inkscape:window-maximized="0" />
  <defs
     id="defs4">
    <filter
       id="filter3606"
       height="1.2229964"
       y="-0.11149816"
       width="1.2375122"
       x="-0.1187561"
       inkscape:collect="always">
      <feGaussianBlur
         id="feGaussianBlur3608"
         stdDeviation="7.0139312"
         inkscape:collect="always" />
    </filter>
    <filter
       id="filter3602"
       height="1.2213632"
       y="-0.11068162"
       width="1.2267212"
       x="-0.1133606"
       inkscape:collect="always">
      <feGaussianBlur
         id="feGaussianBlur3604"
         stdDeviation="6.9717137"
         inkscape:collect="always" />
    </filter>
    <filter
       inkscape:collect="always"
       height="1.2431766"
       x="-0.12361581"
       y="-0.12158829"
       width="1.2472316"
       id="filter6626">
      <feGaussianBlur
         inkscape:collect="always"
         id="feGaussianBlur6628"
         stdDeviation="7.2083506" />
    </filter>
    <filter
       inkscape:collect="always"
       height="1.1975313"
       x="-0.23513465"
       y="-0.098765641"
       width="1.4702693"
       id="filter6618">
      <feGaussianBlur
         inkscape:collect="always"
         id="feGaussianBlur6620"
         stdDeviation="7.2083506" />
    </filter>
    <filter
       inkscape:collect="always"
       id="filter6614">
      <feGaussianBlur
         inkscape:collect="always"
         id="feGaussianBlur6616"
         stdDeviation="7.2083506" />
    </filter>
    <filter
       inkscape:collect="always"
       height="1.1917433"
       x="-0.16619301"
       y="-0.095871665"
       width="1.332386"
       id="filter6610">
      <feGaussianBlur
         inkscape:collect="always"
         id="feGaussianBlur6612"
         stdDeviation="7.2083506" />
    </filter>
    <filter
       inkscape:collect="always"
       height="1.1988666"
       x="-0.15040377"
       y="-0.099433325"
       width="1.3008075"
       id="filter6606">
      <feGaussianBlur
         inkscape:collect="always"
         id="feGaussianBlur6608"
         stdDeviation="7.2083506" />
    </filter>
    <mask
       id="mask6485"
       maskUnits="userSpaceOnUse">
      <g
         id="g6487">
        <g
           id="g6489"
           style="opacity:1">
          <path
             style="opacity:1;fill:#ffffff;fill-opacity:1;stroke:none;stroke-width:1;stroke-miterlimit:4;stroke-opacity:1"
             d="M 30.200893,156.18902 L 86.208893,156.18902 L 86.208893,274.36202 L 30.200893,274.36202 L 30.200893,156.18902 z"
             id="path6491" />
          <path
             id="path6493"
             d="M 217.59616,127.51939 C 288.06229,193.3898 322.74788,270.6703 295.06931,300.1328 C 267.39119,329.5948 187.82993,300.08148 117.36484,234.21246 C 46.898858,168.34182 12.214194,91.060728 39.892415,61.59906 C 67.570633,32.136699 147.13075,61.650015 217.59616,127.51939 z"
             style="opacity:1;fill:none;stroke:#000000;stroke-width:2.85602689;stroke-opacity:1" />
          <path
             sodipodi:type="arc"
             style="opacity:0;fill:#000000;fill-opacity:1;stroke:none;stroke-width:1;stroke-miterlimit:4;stroke-dasharray:none;stroke-opacity:1;filter:url(#filter3584)"
             id="path6495"
             sodipodi:cx="130.5"
             sodipodi:cy="448.5"
             sodipodi:rx="65.5"
             sodipodi:ry="17.5"
             d="M 196,448.5 A 65.5,17.5 0 1 1 65,448.5 A 65.5,17.5 0 1 1 196,448.5 z"
             transform="matrix(0.8042665,0.8042665,-2.2829447,2.2829447,1039.8598,-896.14052)" />
        </g>
        <path
           sodipodi:nodetypes="ccssssssssccsssssssssccc"
           id="path6497"
           d="M 206.09375,151.84375 C 201.54346,151.72904 196.89629,151.75124 192,151.875 C 166.86975,152.23296 146.95456,159.0491 132.4375,174.65625 C 118.25371,189.90514 112.27411,210.96439 113.125,235.03125 C 113.97566,259.09145 121.49714,286.42487 134.65625,315.6875 C 160.97457,374.21294 209.98718,440.55695 275.84375,502.125 C 341.69188,563.68515 409.83977,607.20244 468.9375,628.875 C 498.48576,639.71106 525.77973,645.11088 549.625,644.3125 C 573.47415,643.51399 594.06021,636.3818 608.875,621.9375 C 627.96048,603.32929 633.35569,574.01567 627.75,540 C 622.16987,506.13947 608.57097,473.18349 585.15625,432 C 580.64393,443.40877 578.9935,449.84886 577.19151,455.21972 C 597.75128,494.34864 606.00607,510.77451 611.5,540.40625 C 616.99128,570.02366 612.85004,593.05521 598.6875,608.28125 C 587.60662,620.19421 571.18913,626.41763 549.84375,627.09375 C 528.50691,627.7696 502.5011,622.68301 473.96875,612.15625 C 416.89847,591.10066 349.59424,548.44622 286.375,489.34375 C 223.15307,430.23878 175.85138,365.82819 150.625,310.28125 C 138.01233,282.50893 130.947,256.9586 129.9375,235.6875 C 128.9276,214.40802 133.80001,197.71492 144.59375,186.09375 C 158.14854,171.49991 179.56448,166.75148 208.5,168.5625 C 237.47497,170.37599 249.81627,174.07838 289.36393,192.40929 C 294.48908,187.45388 302.36467,187.81493 308.61617,185.86601 C 270.09477,167.01259 223.97702,153.13894 206.09375,151.84375 z"
           style="opacity:0.85;fill:#000000;fill-opacity:1;fill-rule:evenodd;stroke:none;stroke-width:5.32499981;stroke-miterlimit:4;stroke-dashoffset:0;stroke-opacity:1;filter:url(#filter4557)"
           transform="matrix(0.5254274,0,0,0.5254283,-27.680483,-28.019604)" />
      </g>
    </mask>
    <mask
       id="mask3611"
       maskUnits="userSpaceOnUse">
      <g
         id="g3613">
        <rect
           style="opacity:1;fill:#ffffff;fill-opacity:1;stroke:none;stroke-width:1;stroke-miterlimit:4;stroke-dasharray:none;stroke-opacity:1"
           id="rect3615"
           width="57.757999"
           height="117.344"
           x="246.0719"
           y="159.09203" />
        <path
           id="path3618"
           d="M 218.78716,234.21235 C 289.25329,168.34205 323.93888,91.061662 296.26031,61.599231 C 268.58219,32.137264 189.02093,61.650533 118.55584,127.51945 C 48.089857,193.38999 13.405193,270.67108 41.083414,300.13258 C 68.761632,329.59501 148.32175,300.0815 218.78716,234.21235 z"
           style="opacity:1;fill:none;fill-opacity:1;stroke:#000000;stroke-width:2.85602474;stroke-opacity:1" />
      </g>
    </mask>
    <radialGradient
       r="136.81476"
       fy="178.49866"
       fx="167.01521"
       cy="178.49866"
       cx="167.01521"
       gradientTransform="matrix(1,0,0,1.0018117,0,-0.3233808)"
       gradientUnits="userSpaceOnUse"
       id="radialGradient3582"
       xlink:href="#linearGradient4472"
       inkscape:collect="always" />
    <radialGradient
       gradientUnits="userSpaceOnUse"
       gradientTransform="matrix(1,0,0,1.0018117,0,-0.3233808)"
       r="136.81476"
       fy="178.49866"
       fx="167.01521"
       cy="178.49866"
       cx="167.01521"
       id="radialGradient3572"
       xlink:href="#linearGradient4472"
       inkscape:collect="always" />
    <radialGradient
       r="136.81476"
       fy="178.49866"
       fx="167.01521"
       cy="178.49866"
       cx="167.01521"
       gradientTransform="matrix(1,0,0,1.0018117,0,-0.3233786)"
       gradientUnits="userSpaceOnUse"
       id="radialGradient3552"
       xlink:href="#linearGradient3544"
       inkscape:collect="always" />
    <radialGradient
       gradientUnits="userSpaceOnUse"
       gradientTransform="matrix(1,0,0,2.10995,0,-238.94517)"
       r="28.003813"
       fy="215.27562"
       fx="58.204266"
       cy="215.27562"
       cx="58.204266"
       id="radialGradient3532"
       xlink:href="#linearGradient3518"
       inkscape:collect="always" />
    <radialGradient
       gradientUnits="userSpaceOnUse"
       gradientTransform="matrix(1,0,0,2.0316509,0,-215.14757)"
       r="28.878916"
       fy="208.54688"
       fx="272.53516"
       cy="208.54688"
       cx="272.53516"
       id="radialGradient3526"
       xlink:href="#linearGradient3518"
       inkscape:collect="always" />
    <radialGradient
       gradientUnits="userSpaceOnUse"
       gradientTransform="matrix(1,0,0,0.7164935,0,68.348928)"
       r="103.94636"
       fy="241.08414"
       fx="158.75253"
       cy="241.08414"
       cx="158.75253"
       id="radialGradient3504"
       xlink:href="#linearGradient3506"
       inkscape:collect="always" />
    <mask
       id="mask3526"
       maskUnits="userSpaceOnUse">
      <g
         transform="translate(124.27775,-1.5003798)"
         id="g3528">
        <path
           style="opacity:1;fill:#000000;fill-opacity:1;fill-rule:evenodd;stroke:none;stroke-width:5.32499981;stroke-miterlimit:4;stroke-dasharray:none;stroke-dashoffset:0;stroke-opacity:1"
           d="M 164.94714,41.435772 C 128.57843,41.9707 95.566594,56.785803 71.322143,80.560772 C 58.808885,92.83172 48.641713,107.48962 41.540893,123.81077 C 37.990494,131.97135 35.209543,140.56717 33.290893,149.46702 C 32.811223,151.69197 32.380073,153.92172 32.009643,156.18577 C 31.639223,158.44981 31.330414,160.72925 31.072143,163.02952 C 30.555573,167.6301 30.247723,172.30107 30.197143,177.02952 C 29.792563,214.85723 44.763761,249.30169 69.259643,274.37327 C 93.755523,299.44484 127.78103,315.15692 165.54089,315.56077 C 203.30075,315.96463 237.67061,300.97767 262.69714,276.43577 C 287.72365,251.89387 303.41754,217.79473 303.82214,179.96702 C 303.8727,175.23856 303.67769,170.54635 303.25964,165.93577 C 303.05061,163.63048 302.76904,161.36347 302.44714,159.09202 L 302.47839,159.09202 C 302.15648,156.82057 301.75411,154.54548 301.32214,152.31077 C 299.59429,143.37192 297.00967,134.76416 293.63464,126.52952 C 286.88453,110.06022 277.00758,95.159059 264.75964,82.623272 C 240.26376,57.551701 206.23825,41.839641 168.47839,41.435772 C 167.29839,41.423151 166.12032,41.418516 164.94714,41.435772 z"
           id="path3530" />
        <path
           style="opacity:1;fill:#ffffff;fill-opacity:1;fill-rule:evenodd;stroke:none;stroke-width:5.32499981;stroke-miterlimit:4;stroke-dasharray:none;stroke-dashoffset:0;stroke-opacity:1"
           d="M 165.32214,65.217022 C 166.29173,65.202758 167.25319,65.206592 168.22839,65.217022 C 199.43488,65.550784 227.5478,78.557614 247.79089,99.279522 C 257.91244,109.64047 266.08782,121.91793 271.66589,135.52952 C 274.45492,142.3353 276.58181,149.48561 278.00964,156.87327 C 278.36659,158.72018 278.68112,160.55849 278.94714,162.43577 L 279.97839,162.27952 C 279.84113,162.49723 279.7068,162.71715 279.57214,162.93577 C 279.41783,163.18629 279.26311,163.43558 279.10339,163.68577 C 279.10472,163.69599 279.10206,163.7068 279.10339,163.71702 C 279.2398,164.80588 279.368,165.90441 279.47839,166.99827 C 279.51719,167.37428 279.56922,167.74639 279.60339,168.12327 C 279.94883,171.93371 280.11394,175.80919 280.07214,179.71702 C 279.73776,210.97957 266.75383,239.15158 246.07214,259.43577 C 225.39181,279.71059 196.98927,292.1132 165.79089,291.77952 C 134.5844,291.44576 106.44805,278.43902 86.197143,257.71702 C 65.946243,236.99504 53.581522,208.54209 53.915893,177.27952 C 53.957683,173.37169 54.207543,169.51919 54.634643,165.71702 C 54.848193,163.81592 55.109624,161.93191 55.415893,160.06077 C 55.722174,158.18962 56.081803,156.33713 56.478393,154.49827 C 58.064753,147.14286 60.355473,140.05533 63.290893,133.31077 C 69.161741,119.82164 77.571143,107.70282 87.915893,97.560772 C 107.95882,77.910545 135.26497,65.659204 165.32214,65.217022 z"
           id="path3532" />
      </g>
    </mask>
    <radialGradient
       r="136.8125"
       fy="176.99828"
       fx="291.30255"
       cy="176.99828"
       cx="291.30249"
       gradientTransform="matrix(0.8704835,1.1561275e-3,-1.1680948e-3,0.8794931,-88.759661,13.276134)"
       gradientUnits="userSpaceOnUse"
       id="radialGradient3512"
       xlink:href="#linearGradient3509"
       inkscape:collect="always" />
    <radialGradient
       r="136.8125"
       fy="176.99828"
       fx="291.30255"
       cy="176.99828"
       cx="291.30249"
       gradientTransform="matrix(0.8704835,1.1561275e-3,-1.1680948e-3,0.8794931,-88.759661,13.276134)"
       gradientUnits="userSpaceOnUse"
       id="radialGradient3509"
       xlink:href="#linearGradient3509"
       inkscape:collect="always" />
    <radialGradient
       r="136.8125"
       fy="176.99828"
       fx="291.30255"
       cy="176.99828"
       cx="291.30249"
       gradientTransform="matrix(0.8704835,1.1561275e-3,-1.1680948e-3,0.8794931,-88.759661,13.276134)"
       gradientUnits="userSpaceOnUse"
       id="radialGradient3506"
       xlink:href="#linearGradient3509"
       inkscape:collect="always" />
    <radialGradient
       r="136.8125"
       fy="176.99828"
       fx="291.30255"
       cy="176.99828"
       cx="291.30249"
       gradientTransform="matrix(0.8704835,1.1561275e-3,-1.1680948e-3,0.8794931,-88.759661,13.276134)"
       gradientUnits="userSpaceOnUse"
       id="radialGradient3503"
       xlink:href="#linearGradient3509"
       inkscape:collect="always" />
    <radialGradient
       r="136.8125"
       fy="176.99828"
       fx="291.30255"
       cy="176.99828"
       cx="291.30249"
       gradientTransform="matrix(0.8704835,1.1561275e-3,-1.1680948e-3,0.8794931,-88.759661,13.276134)"
       gradientUnits="userSpaceOnUse"
       id="radialGradient3500"
       xlink:href="#linearGradient3509"
       inkscape:collect="always" />
    <filter
       height="1.3750091"
       y="-0.18750454"
       width="1.1001933"
       x="-0.050096635"
       id="filter3584"
       inkscape:collect="always">
      <feGaussianBlur
         id="feGaussianBlur3586"
         stdDeviation="2.7344413"
         inkscape:collect="always" />
    </filter>
    <inkscape:perspective
       sodipodi:type="inkscape:persp3d"
       inkscape:vp_x="0 : 526.18109 : 1"
       inkscape:vp_y="0 : 1000 : 0"
       inkscape:vp_z="744.09448 : 526.18109 : 1"
       inkscape:persp3d-origin="372.04724 : 350.78739 : 1"
       id="perspective3571" />
    <mask
       id="mask3555"
       maskUnits="userSpaceOnUse">
      <g
         id="g3557">
        <path
           style="fill:#ffffff;fill-opacity:1;stroke:none;stroke-width:1;stroke-miterlimit:4;stroke-opacity:1"
           d="M 28.967893,48.752022 L 306.05389,48.752022 L 306.05389,312.98002 L 28.967893,312.98002 L 28.967893,48.752022 z"
           id="path3560" />
        <path
           id="path3562"
           d="M 217.62616,127.51967 C 288.09229,193.38998 322.77788,270.67036 295.09931,300.13282 C 267.42119,329.59478 187.85993,300.0815 117.39484,234.21258 C 46.928858,168.34204 12.244193,91.061065 39.922414,61.599442 C 67.600632,32.137126 147.16075,61.650396 217.62616,127.51967 z"
           style="opacity:1;fill:none;stroke:#000000;stroke-width:2.85602474;stroke-opacity:1" />
      </g>
    </mask>
    <mask
       id="mask3535"
       maskUnits="userSpaceOnUse">
      <g
         transform="translate(-2.4158933,-9.2170219)"
         id="g3537">
        <path
           style="opacity:1;fill:#ffffff;fill-opacity:1;stroke:none;stroke-width:1;stroke-miterlimit:4;stroke-opacity:1"
           d="M 30.128893,48.752022 L 307.21489,48.752022 L 307.21489,312.98002 L 30.128893,312.98002 L 30.128893,48.752022 z"
           id="path3540" />
        <path
           style="opacity:1;fill:none;fill-opacity:1;stroke:#000000;stroke-width:2.85602117;stroke-opacity:1;display:inline"
           d="M 218.78693,234.21244 C 289.25295,168.34222 323.9385,91.061933 296.25997,61.599537 C 268.58188,32.137606 189.02072,61.650839 118.55573,127.51967 C 48.089834,193.39013 13.405214,270.67113 41.0834,300.13259 C 68.761583,329.59499 148.3216,300.08151 218.78693,234.21244 z"
           id="path3542" />
      </g>
    </mask>
    <mask
       id="mask3890"
       maskUnits="userSpaceOnUse">
      <g
         transform="matrix(4.196407,0,0,4.2068986,568.33828,145.48677)"
         id="g3892">
        <path
           style="fill:#ffffff;fill-opacity:1;stroke:none;stroke-width:1;stroke-miterlimit:4;stroke-opacity:1"
           d="M 14.639903,33.538916 L 307.21491,33.538916 L 307.21491,312.97992 L 14.639903,312.97992 L 14.639903,33.538916 z"
           id="path3894" />
        <path
           sodipodi:nodetypes="cccccc"
           style="fill:#000000;fill-opacity:1;display:inline"
           d="M 76.090877,247.08387 C 69.545799,238.51665 64.233431,229.00363 60.499332,218.78646 C 43.324592,175.38483 56.726222,122.3681 92.389378,92.290233 C 114.5629,72.909966 144.38362,62.837933 173.75956,64.823832 C 197.51055,65.804556 220.23239,75.202457 238.52919,90.079008 L 76.090877,247.08387 z"
           id="path3896" />
        <path
           transform="matrix(0.9999966,0,0,1.000003,2.4161608,9.2164346)"
           style="fill:#000000;fill-opacity:1;stroke:none;stroke-width:12;stroke-opacity:1;filter:url(#filter3847)"
           d="M 137,194.25 C 134.90471,194.35828 132.92348,195.23759 131.4375,196.71875 L 108,220 C 106.35513,221.6237 105.4423,223.84716 105.47178,226.15824 C 105.50126,228.46933 106.4705,230.66879 108.15625,232.25 C 144.20894,265.95109 182.53539,290.44709 216.375,303 C 219.6133,304.20206 223.25701,303.3251 225.59375,300.78125 L 248.09375,276.90625 C 250.00936,274.82399 250.76342,271.92512 250.10525,269.17336 C 249.44709,266.4216 247.46296,264.17765 244.8125,263.1875 C 214.34115,251.88406 177.62687,228.69507 143.21875,196.53125 C 141.53955,194.96127 133.2961,200.1383 131,200.25 L 137,194.25 z"
           id="path3898"
           sodipodi:nodetypes="cccsccccscccc" />
      </g>
    </mask>
    <filter
       id="filter3847"
       inkscape:collect="always">
      <feGaussianBlur
         id="feGaussianBlur3849"
         stdDeviation="2.4215922"
         inkscape:collect="always" />
    </filter>
    <mask
       id="mask3789"
       maskUnits="userSpaceOnUse">
      <g
         transform="matrix(4.196407,0,0,4.2068986,568.33828,145.48677)"
         id="g3791">
        <path
           id="path3793"
           d="M 28.937847,33.538929 L 321.51286,33.538929 L 321.51286,312.97994 L 28.937847,312.97994 L 28.937847,33.538929 z"
           style="opacity:1;fill:#ffffff;fill-opacity:1;stroke:none;stroke-width:1;stroke-miterlimit:4;stroke-opacity:1" />
        <path
           id="path3795"
           d="M 92.38938,92.290242 C 114.5629,72.909969 144.38362,62.837936 173.75956,64.823835 C 222.7828,66.848098 267.42153,104.73208 277.81406,152.63592 C 284.75898,180.18359 279.80842,209.72252 266.0633,234.29892 L 92.38938,92.290242 z"
           style="opacity:1;fill:#000000;fill-opacity:1;display:inline"
           sodipodi:nodetypes="ccccc" />
      </g>
    </mask>
    <filter
       id="filter4557"
       inkscape:collect="always">
      <feGaussianBlur
         id="feGaussianBlur4559"
         stdDeviation="4.9633802"
         inkscape:collect="always" />
    </filter>
    <linearGradient
       id="linearGradient4472">
      <stop
         id="stop4474"
         style="stop-color:#ffffff;stop-opacity:1;"
         offset="0" />
      <stop
         id="stop4476"
         style="stop-color:#ffffff;stop-opacity:1;"
         offset="0.83999997" />
      <stop
         offset="0.88"
         style="stop-color:#ffffff;stop-opacity:0;"
         id="stop4478" />
      <stop
         id="stop4480"
         style="stop-color:#ffffff;stop-opacity:0;"
         offset="0.94999999" />
      <stop
         id="stop4482"
         style="stop-color:#ffffff;stop-opacity:0;"
         offset="1" />
    </linearGradient>
    <linearGradient
       id="linearGradient3509">
      <stop
         offset="0"
         style="stop-color:#ffffff;stop-opacity:0;"
         id="stop3511" />
      <stop
         offset="0.85116279"
         style="stop-color:#ffffff;stop-opacity:0;"
         id="stop3513" />
      <stop
         id="stop3515"
         style="stop-color:#ffffff;stop-opacity:1;"
         offset="0.91397607" />
      <stop
         offset="0.95380628"
         style="stop-color:#ffffff;stop-opacity:1;"
         id="stop3517" />
      <stop
         offset="1"
         style="stop-color:#ffffff;stop-opacity:0;"
         id="stop3519" />
    </linearGradient>
    <linearGradient
       id="linearGradient3506">
      <stop
         id="stop3510"
         style="stop-color:#ffffff;stop-opacity:0;"
         offset="0" />
      <stop
         offset="0.91397607"
         style="stop-color:#ffffff;stop-opacity:1;"
         id="stop3512" />
      <stop
         id="stop3514"
         style="stop-color:#ffffff;stop-opacity:1;"
         offset="0.95380628" />
      <stop
         id="stop3516"
         style="stop-color:#ffffff;stop-opacity:0;"
         offset="1" />
    </linearGradient>
    <linearGradient
       id="linearGradient3518"
       inkscape:collect="always">
      <stop
         id="stop3520"
         offset="0"
         style="stop-color:#000000;stop-opacity:1;" />
      <stop
         id="stop3522"
         offset="1"
         style="stop-color:#000000;stop-opacity:0;" />
    </linearGradient>
    <linearGradient
       id="linearGradient3544"
       inkscape:collect="always">
      <stop
         id="stop3546"
         offset="0"
         style="stop-color:#000000;stop-opacity:1;" />
      <stop
         id="stop3548"
         offset="1"
         style="stop-color:#000000;stop-opacity:0;" />
    </linearGradient>
    <inkscape:path-effect
       scale_y_rel="false"
       prop_scale="1"
       count="5"
       strokepath="M 243.656,208.547 L 301.414,208.547 "
       id="path-effect3559"
       effect="curvestitching" />
    <inkscape:path-effect
       prop_scale="1"
       count="5"
       strokepath="M 243.656,208.547 L 301.414,208.547 "
       id="path-effect3561"
       effect="curvestitching" />
    <linearGradient
       id="linearGradient3660">
      <stop
         offset="0"
         style="stop-color:#000000;stop-opacity:1;"
         id="stop3662" />
      <stop
         offset="0.83999997"
         style="stop-color:#000000;stop-opacity:1;"
         id="stop3664" />
      <stop
         id="stop3666"
         style="stop-color:#000000;stop-opacity:0;"
         offset="0.88" />
      <stop
         offset="0.94999999"
         style="stop-color:#000000;stop-opacity:0;"
         id="stop3668" />
      <stop
         offset="1"
         style="stop-color:#000000;stop-opacity:0;"
         id="stop3670" />
    </linearGradient>
    <radialGradient
       inkscape:collect="always"
       xlink:href="#linearGradient4472"
       id="radialGradient4727"
       gradientUnits="userSpaceOnUse"
       gradientTransform="matrix(1,0,0,1.0018117,0,-0.3233808)"
       cx="167.01521"
       cy="178.49866"
       fx="167.01521"
       fy="178.49866"
       r="136.81476" />
    <radialGradient
       inkscape:collect="always"
       xlink:href="#linearGradient4472"
       id="radialGradient4729"
       gradientUnits="userSpaceOnUse"
       gradientTransform="matrix(1,0,0,1.0018117,0,-0.3233808)"
       cx="167.01521"
       cy="178.49866"
       fx="167.01521"
       fy="178.49866"
       r="136.81476" />
  </defs>
  <metadata
     id="metadata7">
    <rdf:RDF>
      <cc:Work
         rdf:about="">
        <dc:format>image/svg+xml</dc:format>
        <dc:type
           rdf:resource="http://purl.org/dc/dcmitype/StillImage" />
        <dc:title></dc:title>
        <dc:rights>
          <cc:Agent>
            <dc:title>Published under GPLv2 or any later version or CC-BY-SA 3.0</dc:title>
          </cc:Agent>
        </dc:rights>
        <dc:creator>
          <cc:Agent>
            <dc:title>Krzysztof Blaszczyk (ROSFan, chr_bl@web.de)</dc:title>
          </cc:Agent>
        </dc:creator>
        <dc:date>2008-04-12</dc:date>
      </cc:Work>
    </rdf:RDF>
  </metadata>
  <g
     transform="translate(-2.416002,-81.679778)"
     id="g3191"
     inkscape:label="Ebene 1">
    <g
       transform="matrix(0.996297,0,0,1,-99.53402,-71.8889)"
       id="g2564">
      <g
         id="g6147"
         transform="matrix(0.7424504,0,0,0.7446541,98.39156,63.707562)">
        <g
           id="g6177">
          <g
             id="g6634">
            <path
               style="font-size:12px;font-style:normal;font-variant:normal;font-weight:normal;font-stretch:normal;text-align:start;line-height:125%;writing-mode:lr-tb;text-anchor:start;fill:#ffffff;fill-opacity:1;fill-rule:nonzero;stroke:none;stroke-width:10;stroke-miterlimit:4;stroke-dashoffset:0;stroke-opacity:1;filter:url(#filter6606);font-family:Century Gothic"
               id="path3394"
               sodipodi:type="inkscape:offset"
               d="M 42.8125,160.0625 C 41.285837,160.05821 39.788366,160.64913 38.6875,161.75 C 37.586635,162.85087 36.964384,164.35036 36.96875,165.90625 L 36.96875,302.375 C 36.964384,303.93082 37.601219,305.41371 38.6875,306.5 C 39.773784,307.58628 41.256677,308.22312 42.8125,308.21875 L 55.46875,308.21875 C 57.024664,308.22314 58.524139,307.60087 59.625,306.5 C 60.72585,305.39913 61.316784,303.90166 61.3125,302.375 L 61.3125,185.125 L 77.8125,185.125 C 82.0157,185.12505 85.653943,185.31131 88.5,185.625 C 91.346057,185.93869 93.446105,186.39487 94.34375,186.78125 C 98.589103,188.6088 100.44229,188.77588 103.5,191.90625 C 107.34757,195.84524 107.9772,196.45243 110.09375,203.25 C 110.83134,205.90163 110.41678,212.50804 108.5,217.09375 C 108.48912,217.11435 108.4787,217.13519 108.46875,217.15625 C 108.06934,218.15593 106.8423,220.16542 105.21875,222.09375 C 103.5952,224.02208 101.55248,225.95126 99.53125,227.15625 C 95.613452,229.49192 91.459581,229.33421 82.78125,229.53125 C 74.266019,229.72457 73.375,229.71875 73.375,229.71875 C 71.282142,229.70218 69.324933,230.81866 68.28125,232.65625 C 67.237568,234.49385 67.278043,236.75577 68.375,238.5625 L 108.3125,305.375 C 109.35856,307.12378 111.24352,308.21294 113.28125,308.21875 L 130.15625,308.21875 C 132.2833,308.22951 134.2207,307.05553 135.25,305.21875 C 136.27932,303.38196 136.23284,301.10216 135.125,299.3125 L 106.125,251.9375 C 110.6839,250.33215 114.49845,248.32538 116.5,246.875 C 116.55567,246.82663 116.60788,246.77442 116.65625,246.71875 C 116.68506,246.69053 116.72178,246.65381 116.75,246.625 C 123.0021,241.89159 127.40499,238.65137 131.375,231.21875 C 131.37541,231.19792 131.37541,231.17708 131.375,231.15625 C 131.43685,231.02967 131.51003,230.91189 131.5625,230.78125 C 134.74445,223.64939 135.75112,216.16477 135.96875,209.03125 C 135.97963,209.01065 135.99005,208.98981 136,208.96875 C 136.00006,208.95429 136.00006,208.95196 136,208.9375 C 136.23585,196.71823 131.4863,183.01035 121.75,173.625 C 112.62505,164.82899 105.60231,163.13113 99.5,161.625 C 91.819714,159.72944 82.087307,160.06265 68.0625,160.0625 L 42.8125,160.0625 z"
               inkscape:original="M 42.8125 161.65625 C 41.684362 161.65308 40.610216 162.07728 39.8125 162.875 C 39.014781 163.67272 38.559334 164.77811 38.5625 165.90625 L 38.5625 302.375 C 38.559334 303.50315 39.014783 304.57728 39.8125 305.375 C 40.610214 306.17271 41.684362 306.62817 42.8125 306.625 L 55.46875 306.625 C 56.596888 306.62818 57.702283 306.17272 58.5 305.375 C 59.297718 304.57727 59.721916 303.50314 59.71875 302.375 L 59.71875 183.53125 L 77.8125 183.53125 C 86.313458 183.53136 92.532912 184.29527 94.96875 185.34375 C 99.089321 187.11758 101.351 187.46069 104.625 190.8125 C 108.48635 194.7656 109.45184 195.90224 111.59375 202.78125 C 112.51427 206.09049 112.04559 212.71886 109.96875 217.6875 C 109.95816 217.70825 109.94775 217.72908 109.9375 217.75 C 108.89641 220.35573 104.83812 225.82061 100.34375 228.5 C 95.986829 231.09746 91.457797 230.92871 82.8125 231.125 C 74.293967 231.31839 73.375 231.3125 73.375 231.3125 C 71.838196 231.30033 70.415248 232.10115 69.65625 233.4375 C 68.89725 234.77386 68.92115 236.43632 69.71875 237.75 L 109.65625 304.5625 C 110.41929 305.83813 111.79484 306.62076 113.28125 306.625 L 130.15625 306.625 C 131.69746 306.6328 133.12156 305.78201 133.875 304.4375 C 134.62846 303.09298 134.59246 301.46672 133.78125 300.15625 L 103.8125 251.1875 C 109.13829 249.60395 113.43711 247.13387 115.5625 245.59375 C 115.58355 245.57313 115.60438 245.5523 115.625 245.53125 C 122.00477 240.69959 126.08558 237.7388 129.96875 230.46875 C 130.01381 230.37654 130.0555 230.28273 130.09375 230.1875 C 133.15912 223.31694 134.19232 215.98097 134.40625 208.96875 C 134.40629 208.95833 134.40629 208.94792 134.40625 208.9375 C 134.6337 197.15325 130.01794 183.77424 120.65625 174.75 C 111.74155 166.15666 105.24517 164.66679 99.125 163.15625 C 91.799614 161.34828 82.110397 161.6564 68.0625 161.65625 L 42.8125 161.65625 z "
               inkscape:radius="1.5785712" />
            <path
               style="font-size:12px;font-style:normal;font-variant:normal;font-weight:normal;font-stretch:normal;text-align:start;line-height:125%;writing-mode:lr-tb;text-anchor:start;fill:#ffffff;fill-opacity:1;fill-rule:nonzero;stroke:none;stroke-width:10;stroke-miterlimit:4;stroke-dashoffset:0;stroke-opacity:1;filter:url(#filter6626);font-family:Century Gothic"
               id="path3396"
               sodipodi:type="inkscape:offset"
               d="M 191.25,188.28125 C 172.90811,188.72576 157.16864,196.57767 146.03125,210.875 C 137.00204,222.43061 132.34375,236.01841 132.34375,250.75 C 132.34375,266.4848 137.85918,281.06073 148.40625,293.40625 C 148.42696,293.41692 148.44779,293.42733 148.46875,293.4375 C 148.58205,293.57367 148.70758,293.6992 148.84375,293.8125 C 159.81249,306.32649 175.43094,312.65627 193.78125,312.65625 C 201.979,312.65625 209.59532,311.44904 216.53125,308.875 C 216.5405,308.87157 216.55326,308.87844 216.5625,308.875 C 216.72196,308.84648 216.87876,308.80467 217.03125,308.75 C 223.70947,306.14041 230.36413,302.44405 235.9375,296.75 C 242.56615,289.97783 247.30011,280.51488 251,273.21875 C 252.19,270.84784 252.11569,267.98501 250.6875,265.6875 C 249.8317,264.31077 248.52956,263.41583 247.09375,262.8125 C 249.1734,262.80907 251.12744,261.97569 252.5625,260.53125 C 253.99756,259.0868 254.79105,257.11177 254.78125,255.09375 C 254.78131,255.08333 254.78131,255.07292 254.78125,255.0625 C 254.64135,239.43231 250.32074,222.7731 241.25,211.28125 C 229.4253,196.20175 212.61702,188.28141 193.03125,188.28125 C 192.64372,188.28127 192.01944,188.26261 191.25,188.28125 z M 193.03125,216.40625 C 193.06518,216.40608 193.11876,216.40625 193.21875,216.40625 C 198.25096,216.40625 202.90614,217.46314 207.53125,219.625 C 212.20414,221.80956 215.61828,224.49985 218.15625,227.71875 C 218.19611,227.77225 218.2378,227.82437 218.28125,227.875 C 218.30177,227.89615 218.3226,227.91698 218.34375,227.9375 C 219.50181,229.42921 220.94291,232.45156 222.28125,235.96875 L 164.03125,236.34375 C 166.0547,230.96943 169.28185,226.91221 172.21875,224.28125 C 178.16059,218.94205 184.63617,216.4487 193.03125,216.40625 z M 162.5,262.5625 L 226.71875,262.75 C 225.17176,263.37086 223.81311,264.43183 222.9375,265.90625 C 218.926,272.63519 217.88999,274.26652 215.125,276.6875 C 212.0743,279.35879 209.28461,281.30703 205.4375,282.75 C 205.41876,282.75703 205.39379,282.74299 205.375,282.75 C 205.34335,282.77023 205.31209,282.79106 205.28125,282.8125 C 205.27083,282.81244 205.26042,282.81244 205.25,282.8125 C 201.14271,284.3446 197.022,285.09375 192.65625,285.09375 C 183.53049,285.09376 176.84573,282.2949 170.71875,275.9375 C 166.00905,271.01028 163.68512,267.57366 162.5,262.5625 z"
               inkscape:original="M 191.3125 191.1875 C 173.7431 191.61329 158.96023 198.9875 148.3125 212.65625 C 139.66201 223.72717 135.25 236.6231 135.25 250.75 C 135.25 265.81226 140.48192 279.65861 150.625 291.53125 C 150.63542 291.53129 150.64583 291.53128 150.65625 291.53125 C 161.06673 303.64733 175.89354 309.75002 193.78125 309.75 C 201.85001 309.75 209.25128 308.56149 215.90625 306.03125 C 215.92708 306.0314 215.94792 306.03139 215.96875 306.03125 C 222.39511 303.52008 228.67463 300.03173 233.875 294.71875 C 240.02403 288.43658 244.70632 279.20245 248.40625 271.90625 C 249.15398 270.41651 249.09875 268.6344 248.21875 267.21875 C 247.33876 265.8031 245.76058 264.95756 244.09375 264.96875 L 229.53125 265.03125 C 227.84985 265.03972 226.29605 265.9293 225.4375 267.375 C 221.41415 274.12381 220.04611 276.23524 217.03125 278.875 C 213.79281 281.71068 210.60653 283.93826 206.28125 285.53125 C 206.27083 285.53123 206.26042 285.53122 206.25 285.53125 C 201.83699 287.17739 197.36057 288 192.65625 288 C 182.89155 288.00001 175.21725 284.77767 168.625 277.9375 C 162.76589 271.80779 159.93231 267.30974 158.96875 259.65625 L 247.09375 259.90625 C 248.36659 259.90415 249.6029 259.37171 250.5 258.46875 C 251.3971 257.56578 251.88118 256.36658 251.875 255.09375 C 251.73985 239.99401 247.45798 223.84888 238.96875 213.09375 C 227.65386 198.66439 211.84769 191.18765 193.03125 191.1875 C 192.57356 191.18752 191.99535 191.17096 191.3125 191.1875 z M 193.03125 213.5 C 193.08235 213.49975 193.12386 213.5 193.21875 213.5 C 198.66815 213.5 203.77413 214.67419 208.75 217 C 213.7573 219.3409 217.59157 222.29676 220.4375 225.90625 C 220.44787 225.91671 220.45829 225.92713 220.46875 225.9375 C 222.46932 228.42795 224.79852 233.15352 226.4375 238.84375 L 160.03125 239.28125 C 161.90452 231.31699 166.3664 225.63203 170.28125 222.125 C 176.69303 216.36352 184.03752 213.54548 193.03125 213.5 z "
               inkscape:radius="2.9042683" />
            <path
               style="font-size:12px;font-style:normal;font-variant:normal;font-weight:normal;font-stretch:normal;text-align:start;line-height:125%;writing-mode:lr-tb;text-anchor:start;opacity:0.8;fill:#ffffff;fill-opacity:1;fill-rule:nonzero;stroke:none;stroke-width:10;stroke-miterlimit:4;stroke-dashoffset:0;stroke-opacity:1;filter:url(#filter3602);font-family:Century Gothic"
               id="path3398"
               sodipodi:type="inkscape:offset"
               d="M 307.84375,187.84375 C 291.94975,188.25754 277.57315,194.67819 266.28125,206.3125 C 254.57435,218.37452 248.46875,233.68246 248.46875,250.5625 C 248.46875,267.70003 254.48077,283.16077 266.0625,295.3125 C 266.28093,295.54398 266.52168,295.75333 266.78125,295.9375 C 278.3242,307.57926 292.97597,313.81252 309.1875,313.8125 C 318.49204,313.8125 327.35031,311.79704 335.375,307.75 C 337.40185,306.73708 339.30525,305.53454 341.1875,304.28125 C 341.31898,304.7722 341.50088,305.16607 341.6875,305.625 C 342.06839,306.56166 342.40329,307.42909 343.53125,308.5625 C 345.6189,310.65799 349.30625,311.16297 349.90625,311.15625 L 362.625,311.15625 C 363.21956,311.16292 366.84703,310.63031 368.90625,308.5625 C 370.06354,307.39909 370.37307,306.53388 370.75,305.59375 C 371.12693,304.65362 371.4871,303.87183 371.46875,302.25 L 371.46875,199.3125 C 371.4768,198.5995 370.9398,195.10546 368.90625,193.0625 C 366.81844,190.96597 363.13059,190.46195 362.53125,190.46875 L 349.8125,190.46875 C 349.21863,190.462 345.58994,190.99474 343.53125,193.0625 C 342.18391,194.41635 341.62325,196.14908 341.3125,197.5625 C 339.64568,196.39432 337.98751,195.20825 336.1875,194.25 C 328.13134,189.92182 319.10495,187.84391 309.53125,187.84375 C 309.21729,187.84374 308.62546,187.82339 307.84375,187.84375 z M 309.59375,218.3125 C 309.60438,218.3122 310.04838,218.3125 310.5625,218.3125 C 319.80863,218.31252 326.41925,221.12228 332.65625,227.625 C 332.67701,227.63557 332.69784,227.64598 332.71875,227.65625 C 332.74957,227.68793 332.78082,227.71918 332.8125,227.75 C 339.0088,234.20228 341.81242,241.37746 341.8125,251.40625 C 341.81242,257.87946 340.46508,263.2544 337.8125,268.09375 C 337.81247,268.10417 337.81247,268.11458 337.8125,268.125 C 337.76938,268.18652 337.7277,268.24904 337.6875,268.3125 C 335.02987,273.18208 331.45627,276.81929 326.34375,279.75 C 321.18422,282.70764 316.12622,284.03127 310.46875,284.03125 C 304.88005,284.03124 300.04295,282.73469 295.09375,279.8125 C 290.28953,276.898 286.63565,273.0168 283.625,267.5625 C 280.61062,262.10144 279.24999,256.81456 279.25,251.03125 C 279.24997,245.14532 280.622,239.80505 283.5625,234.4375 C 286.48725,229.18933 290.00355,225.53158 294.625,222.75 C 294.63247,222.7455 294.64877,222.75449 294.65625,222.75 C 294.67727,222.72936 294.69811,222.70852 294.71875,222.6875 C 294.76072,222.66727 294.80239,222.64643 294.84375,222.625 C 295.00355,222.53039 294.76675,222.68979 294.875,222.625 C 294.91717,222.59443 294.95884,222.56317 295,222.53125 C 299.58776,219.79528 304.19643,218.46273 309.59375,218.3125 z"
               inkscape:original="M 307.96875 192.6875 C 293.27056 193.07016 280.25209 198.86695 269.75 209.6875 C 258.86287 220.90488 253.3125 234.81894 253.3125 250.5625 C 253.3125 266.59694 258.79931 280.67584 269.5625 291.96875 C 269.57291 291.9688 269.58333 291.96879 269.59375 291.96875 C 280.41545 303.18681 293.89351 308.96877 309.1875 308.96875 C 317.80533 308.96875 325.86001 307.13293 333.1875 303.4375 C 337.71785 301.17344 341.89969 298.17301 345.8125 294.59375 L 345.8125 302.34375 C 345.80374 303.11753 346.37938 304.56403 346.96875 305.15625 C 348.18324 306.3753 349.0616 306.32126 349.84375 306.3125 L 362.625 306.3125 C 363.40665 306.32127 364.25392 306.37615 365.46875 305.15625 C 366.05732 304.56457 366.63376 303.08665 366.625 302.3125 L 366.625 199.3125 C 366.63389 198.52527 366.66171 197.66723 365.46875 196.46875 C 364.25436 195.24929 363.37587 195.30362 362.59375 195.3125 L 349.8125 195.3125 C 349.03014 195.30361 348.18391 195.24824 346.96875 196.46875 C 345.7758 197.66747 345.80372 198.55687 345.8125 199.34375 L 345.8125 207.5 C 342.17943 203.89485 338.22572 200.83075 333.90625 198.53125 C 326.59872 194.60527 318.40866 192.68765 309.53125 192.6875 C 309.09558 192.68749 308.60099 192.67103 307.96875 192.6875 z M 309.46875 213.46875 C 309.71097 213.46201 310.09484 213.46875 310.5625 213.46875 C 320.9001 213.46877 329.14274 216.96894 336.15625 224.28125 C 336.16666 224.28129 336.17708 224.28129 336.1875 224.28125 C 343.25147 231.58752 346.65616 240.33459 346.65625 251.40625 C 346.65616 258.57077 345.11963 264.82885 342.0625 270.40625 C 342.0295 270.46787 341.99825 270.53039 341.96875 270.59375 C 341.95826 270.60412 341.94786 270.61452 341.9375 270.625 C 338.86974 276.24605 334.54875 280.61342 328.75 283.9375 C 322.92505 287.27658 316.92441 288.87502 310.46875 288.875 C 304.08121 288.87499 298.25362 287.2921 292.625 283.96875 C 287.09404 280.61337 282.76566 275.99238 279.40625 269.90625 C 276.04231 263.81191 274.40624 257.61557 274.40625 251.03125 C 274.40622 244.36681 276.01566 238.14301 279.3125 232.125 C 282.61425 226.20034 286.85576 221.75236 292.25 218.53125 C 292.29204 218.5112 292.33373 218.49036 292.375 218.46875 C 292.41998 218.44212 292.45484 218.40147 292.5 218.375 C 292.51041 218.37504 292.52083 218.37504 292.53125 218.375 C 297.77853 215.24572 303.31225 213.64011 309.46875 213.46875 z "
               inkscape:radius="4.8354259"
               transform="translate(2.7037948,0)" />
            <path
               style="font-size:12px;font-style:normal;font-variant:normal;font-weight:normal;font-stretch:normal;text-align:start;line-height:125%;writing-mode:lr-tb;text-anchor:start;opacity:0.8;fill:#ffffff;fill-opacity:1;fill-rule:nonzero;stroke:none;stroke-width:10;stroke-miterlimit:4;stroke-dashoffset:0;stroke-opacity:1;filter:url(#filter3606);font-family:Century Gothic"
               id="path3403"
               sodipodi:type="inkscape:offset"
               d="M 431.25,187.9375 C 419.98986,187.93765 409.42355,190.74572 400.09375,196.375 C 390.7865,201.99083 383.3425,209.99706 378.09375,219.84375 C 372.91006,229.61903 370.28123,240.38434 370.28125,251.6875 C 370.28124,268.45692 376.04679,283.54405 387.21875,295.4375 C 398.47644,307.42258 413.46386,313.75002 430.3125,313.75 C 441.16985,313.75 451.23748,311.39968 460.09375,306.625 C 460.37119,306.47435 460.6329,306.29638 460.875,306.09375 C 460.88547,306.08338 460.89588,306.07297 460.90625,306.0625 C 469.4985,301.23821 481.22937,291.95486 487.90625,273.28125 C 488.82148,270.72344 488.469,267.88391 486.90625,265.625 C 485.34349,263.36609 482.79509,262.01396 480.09375,261.96875 C 480.08333,261.96872 480.07292,261.96872 480.0625,261.96875 C 480.0625,261.96875 476.53064,261.92156 472.96875,261.875 C 471.2054,261.85196 469.41975,261.81889 468,261.8125 C 467.31817,261.80945 466.72361,261.80629 466.21875,261.8125 C 465.74115,261.8184 465.45547,261.84434 465.46875,261.84375 C 466.23256,261.80962 465.57285,261.79898 464.84375,261.875 C 464.88033,261.87118 464.36726,261.91733 463.96875,262 C 463.80692,262.03358 463.2509,262.17175 462.78125,262.34375 C 462.21667,262.55057 461.85166,262.76763 461.5,262.96875 C 460.29202,263.65962 460.41284,263.75306 460.125,264 C 459.98108,264.12347 459.84381,264.22932 459.75,264.3125 C 459.7031,264.35409 459.6846,264.38084 459.65625,264.40625 C 459.64208,264.41896 459.63417,264.42924 459.625,264.4375 C 459.62041,264.44163 459.59801,264.43365 459.59375,264.4375 C 459.38813,264.62878 459.19989,264.83793 459.03125,265.0625 C 458.56314,265.67176 458.1622,266.34999 457.875,267.0625 C 452.51058,279.67836 441.88818,284.12502 430.84375,284.125 C 424.74871,284.125 419.70528,282.74746 415,279.90625 C 410.34051,277.06598 406.8103,273.27252 403.96875,267.875 C 401.15932,262.44941 399.87497,256.96688 399.875,250.75 C 399.87497,241.04172 402.64148,233.83656 408.75,227.25 C 414.84844,220.72413 421.37269,217.93763 430.75,217.9375 C 436.76124,217.93757 441.27756,218.94789 445.4375,221.46875 C 449.59744,223.98961 453.59591,228.20928 457.84375,235.28125 C 457.85412,235.29172 457.86453,235.30213 457.875,235.3125 C 458.05929,235.62849 458.27951,235.9221 458.53125,236.1875 C 458.55762,236.21422 458.57029,236.22683 458.59375,236.25 L 458.71875,236.125 C 459.58953,236.98411 460.87468,238.28107 460.875,238.28125 C 460.87522,238.28137 461.32883,238.51463 461.5,238.59375 C 461.67117,238.67287 461.63869,238.68878 462.25,238.90625 C 462.6895,239.06259 463.18942,239.20035 463.4375,239.25 C 464.08953,239.3805 465.26324,239.45555 464.21875,239.34375 C 464.25512,239.34765 464.29461,239.38085 464.75,239.40625 C 464.59454,239.39758 464.79719,239.42362 465.28125,239.4375 C 465.86657,239.45429 466.18215,239.43248 466.53125,239.4375 C 467.44159,239.4506 468.80112,239.49038 470.375,239.5 C 473.4224,239.51863 477.16145,239.51249 479.96875,239.5 C 482.60132,239.47605 485.05895,238.24395 486.65625,236.15625 C 488.25357,234.06855 488.73701,231.36884 488.09375,228.90625 C 484.39754,214.60449 474.01694,205.12882 469.375,201.25 C 464.47645,197.15722 458.65768,193.94056 452.0625,191.5625 C 445.37706,189.12803 438.39506,187.93767 431.25,187.9375 z"
               inkscape:original="M 431.25 192.6875 C 420.7668 192.68764 411.10798 195.26259 402.53125 200.4375 C 393.96472 205.60639 387.1615 212.90712 382.28125 222.0625 C 377.4603 231.15373 375.03123 241.11083 375.03125 251.6875 C 375.03124 267.39365 380.31057 281.14042 390.6875 292.1875 C 401.10053 303.27334 414.6181 309.00002 430.3125 309 C 440.48969 309 449.73028 306.81171 457.84375 302.4375 C 457.85422 302.42716 457.86465 302.41673 457.875 302.40625 C 465.90203 298.04421 476.99453 289.70692 483.4375 271.6875 C 483.84116 270.55938 483.68169 269.29786 483 268.3125 C 482.31831 267.32714 481.19801 266.7388 480 266.71875 C 479.99999 266.71876 476.46723 266.67155 472.90625 266.625 C 471.12575 266.60174 469.33036 266.56863 467.96875 266.5625 C 467.28794 266.55945 466.71862 266.55712 466.28125 266.5625 C 466.06255 266.5652 465.87414 266.58543 465.6875 266.59375 C 465.59417 266.59792 465.51169 266.57624 465.34375 266.59375 C 465.25977 266.60252 465.16398 266.60927 464.9375 266.65625 C 464.82425 266.67975 464.68446 266.71061 464.40625 266.8125 C 464.26714 266.86346 464.09956 266.94745 463.84375 267.09375 C 463.58793 267.24006 462.78163 267.96828 462.78125 267.96875 C 462.57562 268.23638 462.40742 268.53074 462.28125 268.84375 C 456.15645 283.24785 443.31544 288.87502 430.84375 288.875 C 423.99813 288.875 417.99761 287.25066 412.5625 283.96875 C 407.18176 280.68883 402.97 276.15078 399.78125 270.09375 C 396.63524 264.01815 395.12497 257.65842 395.125 250.75 C 395.12497 240.06212 398.43477 231.41353 405.28125 224.03125 C 412.14829 216.68291 420.31334 213.18765 430.75 213.1875 C 443.8999 213.18765 452.91483 217.8745 461.90625 232.84375 C 461.91659 232.85423 461.92702 232.86465 461.9375 232.875 C 461.93765 232.87525 463.21831 234.156 463.21875 234.15625 C 463.21918 234.1565 463.69946 234.38617 463.84375 234.4375 C 464.13232 234.54015 464.27047 234.57283 464.375 234.59375 C 464.58405 234.63559 464.64896 234.61753 464.71875 234.625 C 464.85832 234.63995 464.93168 234.65244 465 234.65625 C 465.13662 234.66387 465.2556 234.68318 465.40625 234.6875 C 465.70753 234.69614 466.10596 234.68048 466.59375 234.6875 C 467.56932 234.70154 468.89762 234.74078 470.40625 234.75 C 473.42351 234.76845 477.14213 234.76244 479.9375 234.75 C 481.08297 234.73958 482.17892 234.19104 482.875 233.28125 C 483.57108 232.37147 483.78951 231.20209 483.5 230.09375 C 480.22856 217.43557 470.68009 208.52971 466.34375 204.90625 C 461.92923 201.21788 456.58597 198.24824 450.4375 196.03125 C 444.27738 193.78807 437.86926 192.68766 431.25 192.6875 z "
               inkscape:radius="4.7448964" />
            <path
               transform="translate(2,-2)"
               style="font-size:12px;font-style:normal;font-variant:normal;font-weight:normal;font-stretch:normal;text-align:start;line-height:125%;writing-mode:lr-tb;text-anchor:start;fill:#ffffff;fill-opacity:1;fill-rule:nonzero;stroke:none;stroke-width:10;stroke-miterlimit:4;stroke-dashoffset:0;stroke-opacity:1;filter:url(#filter6618);font-family:Century Gothic"
               d="M 508.09375,154.125 C 505.34993,154.11728 502.6412,155.1713 500.625,157.1875 C 498.6401,159.17234 497.52335,161.87595 497.53125,164.6875 L 497.53125,188.75 L 488.5,188.75 C 485.75618,188.74228 483.04745,189.7963 481.03125,191.8125 C 479.04635,193.79734 477.9296,196.50095 477.9375,199.3125 L 477.9375,212.96875 C 477.92912,215.88982 479.11992,218.54037 481.0625,220.46875 C 483.0317,222.42357 485.73189,223.56038 488.59375,223.53125 L 497.75,223.4375 L 506.77671,301.65625 C 511.48727,301.73753 515.58435,303.11275 521.21735,301.65625 L 532.25,223.3125 L 541.3125,223.3125 C 544.12415,223.3204 546.82772,222.20353 548.8125,220.21875 C 550.82863,218.20258 551.88272,215.49386 551.875,212.75 L 551.875,199.0625 C 551.88326,196.28736 550.81861,193.53864 548.75,191.5 C 546.69041,189.47023 543.90587,188.45117 541.125,188.5 L 532.25,188.59375 L 532.25,164.6875 C 532.25768,161.97537 531.23637,159.23637 529.1875,157.1875 C 527.13858,155.13862 524.39952,154.11737 521.6875,154.125 L 508.5625,154.125 L 508.09375,154.125 z"
               id="path3621"
               sodipodi:nodetypes="cscccsccsccccccsccscccsccc" />
            <path
               style="font-size:12px;font-style:normal;font-variant:normal;font-weight:normal;font-stretch:normal;text-align:start;line-height:125%;writing-mode:lr-tb;text-anchor:start;fill:#ffffff;fill-opacity:1;fill-rule:nonzero;stroke:none;stroke-width:10;stroke-miterlimit:4;stroke-dashoffset:0;stroke-opacity:1;filter:url(#filter6614);font-family:Century Gothic"
               id="path3410"
               sodipodi:type="inkscape:offset"
               d="M 615.0625,156.1875 C 602.02601,156.34653 589.71533,159.85737 578.5,166.625 C 566.99543,173.5003 557.7948,183.15263 551.15625,195.25 C 544.57745,207.35604 541.28124,220.66047 541.28125,234.75 C 541.28126,255.86019 548.68917,274.53314 563.15625,289.46875 C 577.65116,304.43312 596.09455,312.09377 617.09375,312.09375 C 637.88746,312.09376 656.17743,304.29766 670.59375,289.28125 C 685.06701,274.27244 692.43739,255.4897 692.4375,234.09375 C 692.43736,212.5244 685.06032,193.65075 670.5625,178.75 C 656.0456,163.82997 637.38523,156.1876 616,156.1875 C 615.76853,156.1875 615.44723,156.18281 615.0625,156.1875 z M 615.875,182.125 C 616.03983,182.12221 616.25731,182.125 616.625,182.125 C 625.42081,182.12506 633.56119,184.39706 641.5,189.125 C 649.44206,193.85519 655.38083,199.98346 659.6875,207.8125 C 659.69775,207.82308 659.70817,207.8335 659.71875,207.84375 C 659.73833,207.87582 659.75918,207.90709 659.78125,207.9375 C 664.09531,215.66957 666.28118,224.25919 666.28125,234.09375 C 666.28117,244.03589 664.0605,252.78635 659.6875,260.75 C 655.36849,268.71216 649.49699,274.82084 641.71875,279.40625 C 641.70817,279.4165 641.69775,279.42692 641.6875,279.4375 C 641.64483,279.45627 641.60311,279.47712 641.5625,279.5 C 633.8858,284.02899 625.72938,286.24999 616.625,286.25 C 602.86857,286.25002 591.80669,281.5274 581.96875,271.4375 C 572.21401,261.32203 567.53122,249.56233 567.53125,234.75 C 567.53125,224.74095 569.75496,215.9582 574.125,208 C 578.50898,200.01662 584.43716,193.84194 592.25,189.125 C 599.82688,184.55075 607.58934,182.26552 615.875,182.125 z"
               inkscape:original="M 615.09375 157.59375 C 602.30125 157.7498 590.22748 161.20079 579.21875 167.84375 C 567.93006 174.59004 558.93289 184.04405 552.40625 195.9375 C 545.93977 207.83685 542.68749 220.88209 542.6875 234.75 C 542.68751 255.52942 549.96075 273.78125 564.1875 288.46875 C 578.43498 303.17768 596.43812 310.68752 617.09375 310.6875 C 637.53557 310.68751 655.38946 303.0755 669.5625 288.3125 C 683.79403 273.55437 691.03114 255.16514 691.03125 234.09375 C 691.03111 212.84682 683.78172 194.39652 669.53125 179.75 C 655.26661 165.08924 637.04873 157.59385 616 157.59375 C 615.75164 157.59375 615.45764 157.58931 615.09375 157.59375 z M 615.84375 180.71875 C 616.04259 180.71538 616.26619 180.71875 616.625 180.71875 C 625.66564 180.71881 634.08319 183.06114 642.21875 187.90625 C 650.35698 192.75328 656.51451 199.0845 660.9375 207.125 C 660.94789 207.13546 660.95829 207.14588 660.96875 207.15625 C 665.43957 215.12852 667.68743 224.0072 667.6875 234.09375 C 667.68742 244.24642 665.42552 253.26438 660.9375 261.4375 C 656.50512 269.60865 650.42179 275.91812 642.4375 280.625 C 642.42706 280.63538 642.41662 280.64579 642.40625 280.65625 C 634.48641 285.35738 626.00935 287.65624 616.625 287.65625 C 602.53966 287.65627 591.02739 282.75375 580.96875 272.4375 C 570.9867 262.08632 566.12497 249.86626 566.125 234.75 C 566.125 224.53156 568.38922 215.48147 572.875 207.3125 C 577.37186 199.12357 583.52089 192.74244 591.53125 187.90625 C 599.2978 183.21749 607.3125 180.86344 615.84375 180.71875 z "
               inkscape:radius="1.4174848" />
            <path
               style="font-size:12px;font-style:normal;font-variant:normal;font-weight:normal;font-stretch:normal;text-align:start;line-height:125%;writing-mode:lr-tb;text-anchor:start;fill:#ffffff;fill-opacity:1;fill-rule:nonzero;stroke:none;stroke-width:10;stroke-miterlimit:4;stroke-dashoffset:0;stroke-opacity:1;filter:url(#filter6610);font-family:Century Gothic"
               id="path3414"
               sodipodi:type="inkscape:offset"
               d="M 737.5,156.28125 C 730.04794,156.28135 722.9024,157.98496 716.40625,161.3125 C 709.95384,164.585 704.65439,169.27906 700.9375,175.25 C 696.53109,182.32897 694.37501,192.43084 694.375,200.125 C 694.375,207.62018 695.13487,215.79063 701.125,223.5625 C 701.14012,223.59326 701.17055,223.62295 701.1875,223.65625 C 701.21196,223.68775 701.22536,223.71851 701.25,223.75 C 701.30534,223.8583 701.36799,223.9627 701.4375,224.0625 C 701.45799,224.08368 701.47882,224.10451 701.5,224.125 C 708.36921,232.49943 716.44326,237.18666 729.9375,241.4375 C 735.77794,243.2773 741.02207,245.91564 745.03125,248.59375 C 749.04043,251.27186 751.81265,254.17036 752.5625,255.5625 C 755.99985,261.94413 754.08248,271.7645 751.9375,275.9375 C 750.85814,278.03745 748.75633,280.11081 745.75,281.625 C 742.51571,283.20761 739.32866,283.9375 735.5625,283.9375 C 731.72127,283.93751 727.53346,282.55103 724.28125,279.40625 C 721.00335,276.23662 718.34104,271.24856 718.0625,262.5 C 717.93701,258.55136 714.63808,255.36253 710.6875,255.34375 L 697.34375,255.21875 C 695.32711,255.19962 693.35141,256.02098 691.9375,257.5 C 690.52366,258.97899 689.76268,260.97241 689.875,263.03125 C 690.39993,272.52919 692.89102,281.14152 696.3125,288.1875 C 699.62124,295.00128 703.75437,300.47384 708.9375,303.84375 C 708.96174,303.85951 708.97571,303.89058 709,303.90625 C 709.10661,304.00934 709.22159,304.10341 709.34375,304.1875 C 709.35073,304.19183 709.36801,304.18318 709.375,304.1875 C 709.38533,304.198 709.39575,304.20842 709.40625,304.21875 C 717.41041,309.0958 726.35811,312.03124 736.4375,312.03125 C 749.83458,312.03126 761.09471,306.16291 769.90625,298.125 C 769.91667,298.12506 769.92708,298.12506 769.9375,298.125 C 770.05623,298.01387 770.17085,297.89915 770.28125,297.78125 C 776.38982,291.36543 780.13483,281.00366 781.5,270.21875 C 782.46942,262.5602 781.99714,254.20373 779.96875,245.53125 C 777.31491,234.18467 765.83345,223.02727 747.84375,218.125 C 747.64748,218.05434 747.69048,218.08038 747.625,218.0625 C 747.56812,218.04696 747.39195,217.98372 747.4375,218 C 742.04411,216.07193 737.41199,214.65802 729.84375,210.96875 C 729.80263,210.94683 729.76095,210.92599 729.71875,210.90625 C 729.6787,210.88667 729.66522,210.86346 729.625,210.84375 C 729.61458,210.84369 729.60417,210.84369 729.59375,210.84375 C 729.57326,210.82257 729.55243,210.80174 729.53125,210.78125 C 724.58692,208.43216 723.40215,205.12812 722.65625,202.875 C 721.73801,200.10109 721.17027,193.00506 727.375,187.0625 C 729.80764,184.9068 733.19122,183.46887 736.96875,183.46875 C 739.93717,183.46887 743.45053,184.43016 746.0625,185.875 C 746.10086,185.89622 746.14953,185.91607 746.1875,185.9375 C 746.19783,185.948 746.20825,185.95842 746.21875,185.96875 C 745.74758,185.70727 746.6293,186.26811 747.28125,187 C 747.9332,187.73189 748.6828,188.75523 749.3125,189.9375 C 750.62179,192.39566 751.64706,195.70947 751.6875,199.28125 C 751.7351,203.28565 755.05784,206.57297 759.0625,206.59375 L 771.1875,206.6875 C 775.15709,206.72219 778.5039,203.5293 778.65625,199.5625 C 779.03229,189.70125 776.36342,181.34144 772.65625,175 C 768.97261,168.69877 764.42929,164.26412 759.8125,161.84375 C 752.90812,158.11227 745.39061,156.28134 737.5,156.28125 z"
               inkscape:original="M 737.5 158.96875 C 730.45041 158.96884 723.73947 160.55547 717.625 163.6875 C 711.56443 166.76127 706.66682 171.11715 703.21875 176.65625 C 699.23862 183.0504 697.06251 192.97513 697.0625 200.125 C 697.0625 207.6319 697.68113 215.07876 703.53125 222.375 C 703.54153 222.39591 703.55193 222.41674 703.5625 222.4375 C 710.1029 230.41106 717.48502 234.69638 730.75 238.875 C 742.95784 242.7206 752.57547 249.896 754.9375 254.28125 C 759.04116 261.89993 756.8632 272.19393 754.3125 277.15625 C 752.93066 279.84468 750.41295 282.29652 746.96875 284.03125 C 743.38487 285.78492 739.69243 286.625 735.5625 286.625 C 731.07873 286.62501 726.20191 285.01402 722.40625 281.34375 C 718.61061 277.67349 715.67042 271.87258 715.375 262.59375 C 715.29446 260.0595 713.22301 258.0433 710.6875 258.03125 L 697.3125 257.90625 C 696.01048 257.8939 694.77478 258.40254 693.875 259.34375 C 692.97524 260.28497 692.49157 261.57483 692.5625 262.875 C 693.06665 271.997 695.45217 280.30426 698.71875 287.03125 C 701.98535 293.75825 706.00329 298.95404 710.78125 301.90625 C 710.79164 301.91673 710.80203 301.92713 710.8125 301.9375 C 718.47085 306.60384 726.87026 309.34374 736.4375 309.34375 C 749.05889 309.34376 759.63838 303.86926 768.09375 296.15625 C 768.16906 296.08576 768.242 296.01279 768.3125 295.9375 C 773.77548 290.19974 777.5318 280.23946 778.84375 269.875 C 779.7685 262.56935 779.30709 254.55061 777.34375 246.15625 C 774.99171 236.10001 764.32487 225.32956 746.9375 220.65625 C 746.80378 220.60811 746.66425 220.5788 746.53125 220.53125 C 741.13489 218.60212 736.30141 217.12165 728.40625 213.25 C 728.3959 213.23953 728.38547 213.22912 728.375 213.21875 C 722.61888 210.48397 720.92424 206.13301 720.125 203.71875 C 718.89208 199.99422 718.51 191.84958 725.53125 185.125 C 728.43356 182.55309 732.48468 180.78139 736.96875 180.78125 C 740.52695 180.78139 744.44295 181.86828 747.5 183.59375 C 747.51039 183.60422 747.52078 183.61463 747.53125 183.625 C 748.12959 183.95706 750.18675 185.86983 751.6875 188.6875 C 753.18827 191.50517 754.32908 195.19376 754.375 199.25 C 754.40556 201.82099 756.49136 203.89291 759.0625 203.90625 L 771.21875 204 C 773.7668 204.02227 775.87096 202.015 775.96875 199.46875 C 776.32428 190.14528 773.81437 182.28055 770.34375 176.34375 C 766.87315 170.40695 762.61831 166.34503 758.5625 164.21875 C 752.0493 160.69868 744.97688 158.96884 737.5 158.96875 z "
               inkscape:radius="2.682502" />
          </g>
        </g>
      </g>
      <g
         id="g6643"
         transform="matrix(0.7446541,0,0,0.7446541,124.05379,843.43751)">
        <path
           style="font-size:12px;font-style:normal;font-variant:normal;font-weight:normal;font-stretch:normal;text-align:start;line-height:125%;writing-mode:lr-tb;text-anchor:start;fill:#4c5457;fill-opacity:1;fill-rule:nonzero;stroke:none;stroke-width:10;stroke-miterlimit:4;stroke-dashoffset:0;stroke-opacity:1;font-family:Century Gothic"
           id="text1542"
           sodipodi:nodetypes="cccccszcczzccccccczzcc"
           d="M 8.8633677,-880.71377 L 8.8633677,-744.24632 L 21.504596,-744.24632 L 21.504596,-867.35147 L 43.775141,-867.35147 C 52.428747,-867.35136 58.844304,-866.79604 62.569399,-865.18786 C 66.294432,-863.57955 69.607408,-862.81205 73.518191,-858.79644 C 77.515895,-854.69158 79.238273,-852.30915 81.477098,-845.09753 C 82.782623,-840.39026 82.184768,-833.19019 79.735577,-827.31335 C 78.212118,-823.48897 73.860574,-817.79322 68.369094,-814.50967 C 62.877624,-811.22612 57.363086,-811.44539 48.859994,-811.25176 C 40.356902,-811.05814 39.325672,-811.06398 39.325672,-811.06398 L 79.135847,-744.24632 L 95.966931,-744.24632 L 62.923857,-798.35702 C 69.834106,-799.12411 76.932835,-803.02967 78.906927,-804.4644 C 85.325016,-809.3395 88.482016,-811.45465 92.042997,-818.14128 C 94.782107,-824.29881 95.761111,-831.10357 95.964397,-837.78678 C 96.167665,-848.3491 91.831834,-860.79005 83.545549,-868.80136 C 75.13887,-876.92905 70.275526,-877.79493 64.028885,-879.34126 C 57.78222,-880.88757 48.098525,-880.71362 34.057885,-880.71377 L 8.8633677,-880.71377 z" />
        <path
           style="font-size:12px;font-style:normal;font-variant:normal;font-weight:normal;font-stretch:normal;text-align:start;line-height:125%;writing-mode:lr-tb;text-anchor:start;fill:#4c5457;fill-opacity:1;fill-rule:nonzero;stroke:none;stroke-width:10;stroke-miterlimit:4;stroke-dashoffset:0;stroke-opacity:1;font-family:Century Gothic"
           id="path3381"
           sodipodi:nodetypes="ccscscsccscsccccsccssccccc"
           d="M 157.05326,-850.64901 C 140.74788,-850.25269 127.66446,-843.71422 117.81747,-831.03588 C 109.79935,-820.74379 105.80455,-809.01448 105.80455,-795.86362 C 105.80455,-781.88671 110.52704,-769.34067 119.99726,-758.22273 C 129.46738,-747.16837 142.60868,-741.6444 159.40256,-741.64442 C 166.97866,-741.64442 173.77344,-742.7771 179.77125,-745.06426 C 185.76897,-747.41489 191.37992,-750.57299 195.94995,-755.25584 C 201.22631,-760.66245 205.93562,-769.64259 209.59755,-776.88529 L 195.08447,-776.8004 C 191.04382,-770.00245 189.1835,-767.21916 185.7112,-764.16985 C 182.23867,-761.12019 178.48592,-758.43442 173.49836,-756.59207 C 168.5738,-754.74967 163.50432,-753.82901 158.26423,-753.82901 C 147.40503,-753.82901 138.28278,-757.6922 130.89606,-765.37946 C 123.5093,-773.13032 119.69273,-779.66488 119.44018,-791.73582 L 212.53426,-791.49598 C 212.40783,-805.66333 208.14681,-821.094 200.69702,-830.56027 C 190.21654,-843.96519 176.20307,-850.64887 158.65174,-850.64901 C 158.11906,-850.649 157.57923,-850.66179 157.05326,-850.64901 z M 158.60333,-837.89822 C 158.68205,-837.89861 158.74237,-837.89822 158.82129,-837.89822 C 164.94527,-837.89822 170.80034,-836.58478 176.35631,-833.98012 C 181.912,-831.37513 186.35511,-827.9545 189.70129,-823.69794 C 193.11045,-819.44135 196.42535,-811.81792 197.95406,-803.02378 L 120.05488,-802.54411 C 120.85661,-814.95178 127.48187,-823.30403 132.7852,-828.06901 C 139.98892,-834.56133 148.60266,-837.8475 158.60333,-837.89822 z" />
        <path
           style="font-size:12px;font-style:normal;font-variant:normal;font-weight:normal;font-stretch:normal;text-align:start;line-height:125%;writing-mode:lr-tb;text-anchor:start;fill:#4c5457;fill-opacity:1;fill-rule:nonzero;stroke:none;stroke-width:10;stroke-miterlimit:4;stroke-dashoffset:0;stroke-opacity:1;font-family:Century Gothic"
           id="path3443"
           d="M 276.01965,-850.17452 C 262.26674,-849.8154 250.39954,-844.52856 240.52129,-834.32057 C 230.28297,-823.74036 225.17955,-810.95022 225.17955,-796.06382 C 225.17955,-780.86353 230.23142,-767.89991 240.34622,-757.25582 C 250.52252,-746.67548 262.82098,-741.40185 277.1577,-741.40187 C 285.22672,-741.40187 292.19963,-742.00272 299.26929,-745.12357 C 306.08722,-748.13328 311.75853,-753.2484 317.40522,-759.33507 L 317.40522,-744.29042 C 317.4045,-744.22588 317.42558,-744.15967 317.47087,-744.11402 C 317.51619,-744.06838 317.58189,-744.04715 317.64596,-744.04787 L 330.449,-744.04787 C 330.51307,-744.04715 330.57878,-744.06838 330.6241,-744.11402 C 330.6694,-744.15967 330.69048,-744.22588 330.68974,-744.29042 L 330.68974,-847.30802 C 330.69048,-847.37257 330.6694,-847.43878 330.6241,-847.48442 C 330.57878,-847.53007 330.51307,-847.5513 330.449,-847.55057 L 317.64596,-847.55057 C 317.58189,-847.5513 317.51619,-847.53007 317.47087,-847.48442 C 317.42558,-847.43878 317.4045,-847.37257 317.40522,-847.30802 L 317.40522,-831.07267 C 312.41622,-837.99099 307.2098,-841.82897 300.63402,-845.35632 C 293.91507,-848.96046 285.82459,-850.17438 277.50788,-850.17452 C 277.00777,-850.17452 276.5268,-850.18777 276.01965,-850.17452 z M 277.33277,-836.90042 C 277.71593,-836.91111 278.13664,-836.90042 278.5365,-836.90042 C 289.73028,-836.9004 299.1226,-832.92209 306.74697,-824.94932 C 314.43221,-816.97688 318.25866,-807.07994 318.25876,-795.20387 C 318.25866,-787.4135 316.55647,-780.42297 313.11566,-774.21227 C 313.10836,-774.21261 313.10106,-774.21261 313.09377,-774.21227 C 309.7148,-768.00259 304.87188,-763.0793 298.53988,-759.43877 C 292.20631,-755.79736 285.49492,-753.9924 278.42709,-753.99242 C 271.42125,-753.99244 264.8774,-755.79839 258.73008,-759.43877 C 252.64654,-763.14034 247.80513,-768.30187 244.17619,-774.89582 C 240.54705,-781.49017 238.72667,-788.38325 238.72668,-795.60077 C 238.72666,-802.88204 240.52151,-809.79704 244.08865,-816.32777 C 247.71685,-822.85751 252.53744,-827.87796 258.62066,-831.45407 C 258.62793,-831.45374 258.63525,-831.45374 258.64254,-831.45407 C 264.39437,-834.89443 270.59232,-836.71225 277.33277,-836.90042 z"
           sodipodi:nodetypes="csscssccsccsccsccsccssccscsccsscsscccc" />
        <path
           style="font-size:12px;font-style:normal;font-variant:normal;font-weight:normal;font-stretch:normal;text-align:start;line-height:125%;writing-mode:lr-tb;text-anchor:start;fill:#4c5457;fill-opacity:1;fill-rule:nonzero;stroke:none;stroke-width:10;stroke-miterlimit:4;stroke-dashoffset:0;stroke-opacity:1;font-family:Century Gothic"
           id="path3448"
           sodipodi:nodetypes="cscssscccsccscsccscc"
           d="M 396.16866,-850.21862 C 386.31524,-850.21848 377.38333,-847.80939 369.41321,-842.98622 C 361.44406,-838.1635 355.1776,-831.43433 350.59427,-822.81047 C 346.06816,-814.24989 343.80097,-804.95355 343.80099,-794.93927 C 343.80098,-780.04628 348.68114,-767.36864 358.42084,-756.96917 C 368.16317,-746.56662 380.44585,-741.35775 395.22332,-741.35777 C 404.84243,-741.35777 413.43123,-743.40245 420.94548,-747.46562 C 428.51394,-751.59068 438.58756,-759.06437 444.69011,-776.18239 C 444.69011,-776.18239 430.59002,-776.44567 430.49264,-776.32439 C 423.77967,-760.49017 409.35318,-754.0365 395.75096,-754.03652 C 388.32714,-754.03652 381.635,-755.84905 375.6349,-759.48287 C 369.69167,-763.11642 364.97781,-768.22135 361.52071,-774.80762 C 358.11938,-781.39579 356.4202,-788.42071 356.42023,-795.88742 C 356.42021,-807.37548 360.12029,-817.09672 367.54451,-825.12572 C 375.02293,-833.15201 384.38279,-837.16486 395.663,-837.16502 C 409.78141,-837.16486 420.51596,-831.38399 429.91486,-815.68989 C 429.95489,-815.62466 439.1359,-815.55692 444.66812,-815.58162 C 441.75248,-826.89663 432.79319,-835.51485 428.77204,-838.88492 C 424.7514,-842.25419 419.82738,-844.99535 414.04224,-847.08752 C 408.30901,-849.18146 402.35814,-850.21847 396.16866,-850.21862 z" />
        <path
           style="font-size:12px;font-style:normal;font-variant:normal;font-weight:normal;font-stretch:normal;text-align:start;line-height:125%;writing-mode:lr-tb;text-anchor:start;fill:#4c5457;fill-opacity:1;fill-rule:nonzero;stroke:none;stroke-width:10;stroke-miterlimit:4;stroke-dashoffset:0;stroke-opacity:1;font-family:Century Gothic"
           id="path3371"
           sodipodi:nodetypes="ccccccccccccc"
           d="M 473.24926,-881.9467 L 486.32659,-881.9467 L 486.32659,-847.31122 L 505.88871,-847.55105 L 505.88871,-833.88661 L 486.32659,-833.88661 L 486.32659,-744.47758 L 473.01011,-744.47758 L 473.01011,-833.88661 L 453.24331,-833.64678 L 453.24331,-847.31122 L 472.771,-847.31122 L 472.771,-881.9467" />
        <path
           style="font-size:12px;font-style:normal;font-variant:normal;font-weight:normal;font-stretch:normal;text-align:start;line-height:125%;writing-mode:lr-tb;text-anchor:start;fill:#608194;fill-opacity:1;fill-rule:nonzero;stroke:none;stroke-width:10;stroke-miterlimit:4;stroke-dashoffset:0;stroke-opacity:1;font-family:Century Gothic"
           id="path3369"
           d="M 579.50943,-884.15357 C 567.58507,-884.00768 556.48057,-880.80523 546.20103,-874.58387 C 535.67476,-868.27456 527.36791,-859.53974 521.24253,-848.34437 C 515.17653,-837.14879 512.13977,-824.98648 512.13978,-811.87367 C 512.13977,-792.20408 518.81239,-775.43284 532.19326,-761.57762 C 545.57404,-747.7224 562.0017,-740.8065 581.4486,-740.80652 C 600.65745,-740.80652 616.92619,-747.7707 630.24767,-761.68787 C 643.62832,-775.60489 650.30106,-792.55643 650.30116,-812.53517 C 650.30103,-832.69952 643.62832,-849.67731 630.24767,-863.47067 C 616.8667,-877.26399 600.23937,-884.15348 580.37633,-884.15357 C 580.08922,-884.15357 579.7956,-884.15707 579.50943,-884.15357 z M 580.10259,-870.79127 C 580.40453,-870.79641 580.68938,-870.79127 580.99232,-870.79127 C 590.86434,-870.79121 600.20612,-868.15478 609.00786,-862.89737 C 617.80938,-857.63971 624.63195,-850.62277 629.44918,-841.83962 C 634.32565,-833.11814 636.74957,-823.3595 636.74964,-812.53517 C 636.74954,-801.64894 634.32567,-791.74073 629.44918,-782.83382 C 624.63193,-773.92688 617.87297,-766.9098 609.19039,-761.77607 C 600.56708,-756.6422 591.16169,-754.08063 580.99232,-754.08062 C 565.76784,-754.08062 552.75839,-759.63872 541.93481,-770.77247 C 531.17069,-781.9678 525.7825,-795.66789 525.78253,-811.87367 C 525.7825,-822.82157 528.22919,-832.75615 533.10581,-841.66322 C 537.98237,-850.57 544.75034,-857.6397 553.43303,-862.89737 C 561.84438,-867.99048 570.74236,-870.63205 580.10259,-870.79127 z" />
        <path
           style="font-size:12px;font-style:normal;font-variant:normal;font-weight:normal;font-stretch:normal;text-align:start;line-height:125%;writing-mode:lr-tb;text-anchor:start;fill:#608194;fill-opacity:1;fill-rule:nonzero;stroke:none;stroke-width:10;stroke-miterlimit:4;stroke-dashoffset:0;stroke-opacity:1;font-family:Century Gothic"
           id="path3365"
           sodipodi:nodetypes="cscsszcsscsccccscsccsscscc"
           d="M 674.73859,-783.87386 C 675.38965,-763.36386 688.36742,-755.26744 699.56312,-755.26744 C 704.35204,-755.26744 708.84969,-756.29948 713.05624,-758.36391 C 717.26268,-760.48883 720.53307,-763.61719 722.42731,-767.31343 C 725.58405,-773.47304 728.17503,-785.01168 723.02634,-794.59894 C 719.5052,-801.15559 709.12395,-808.16271 696.17267,-812.25462 C 683.28806,-816.32546 677.33346,-819.84059 671.3126,-827.20257 C 666.26482,-833.51681 665.89307,-839.14818 665.89309,-846.49483 C 665.89307,-852.32337 668.33806,-862.67258 671.31497,-867.46918 C 674.29186,-872.26556 678.46601,-876.02987 683.83734,-878.76217 C 689.27342,-881.55496 695.16246,-882.95144 701.50458,-882.95152 C 708.23488,-882.95144 714.51229,-881.37282 720.33672,-878.21567 C 726.22569,-875.11918 735.78621,-864.1051 735.14853,-847.33204 L 723.02161,-847.43886 C 722.91103,-857.23537 717.59889,-864.99493 713.78076,-867.12024 C 710.02718,-869.24515 705.43955,-870.5474 700.97423,-870.54758 C 695.21454,-870.5474 690.01211,-868.18856 686.32336,-864.91003 C 677.91664,-856.83464 677.94749,-846.81995 679.72005,-841.44947 C 680.66788,-838.5777 683.13728,-832.62427 690.39335,-829.16663 C 698.72659,-825.06803 703.91798,-823.48351 709.31537,-821.53513 C 725.50201,-817.29127 734.9362,-806.79349 736.66148,-799.39526 C 738.50399,-791.49415 738.89747,-784.03546 738.05368,-777.34947 C 736.85795,-767.87485 732.9102,-758.23624 728.84124,-753.9499 C 721.01062,-746.7856 711.70427,-742.00416 700.44392,-742.00416 C 691.77205,-742.00416 684.38742,-744.39938 677.33348,-748.7102 C 670.27953,-753.08165 662.34092,-767.08303 661.40882,-783.99876" />
      </g>
    </g>
  </g>
</svg>
