<?xml version="1.0" encoding="UTF-8" standalone="no"?>
<!-- Created with Inkscape (http://www.inkscape.org/) -->

<svg
   xmlns:dc="http://purl.org/dc/elements/1.1/"
   xmlns:cc="http://creativecommons.org/ns#"
   xmlns:rdf="http://www.w3.org/1999/02/22-rdf-syntax-ns#"
   xmlns:svg="http://www.w3.org/2000/svg"
   xmlns="http://www.w3.org/2000/svg"
   xmlns:sodipodi="http://sodipodi.sourceforge.net/DTD/sodipodi-0.dtd"
   xmlns:inkscape="http://www.inkscape.org/namespaces/inkscape"
   version="1.0"
   width="301.86044"
   height="301.86478"
   id="svg18380"
   sodipodi:docname="ReactOS_Orb_Simplified.svg"
   inkscape:version="0.92.1 r15371">
  <metadata
     id="metadata25">
    <rdf:RDF>
      <cc:Work
         rdf:about="">
        <dc:format>image/svg+xml</dc:format>
        <dc:type
           rdf:resource="http://purl.org/dc/dcmitype/StillImage" />
        <dc:title></dc:title>
      </cc:Work>
    </rdf:RDF>
  </metadata>
  <sodipodi:namedview
     pagecolor="#ffffff"
     bordercolor="#666666"
     borderopacity="1"
     objecttolerance="10"
     gridtolerance="10"
     guidetolerance="10"
     inkscape:pageopacity="0"
     inkscape:pageshadow="2"
     inkscape:window-width="2560"
     inkscape:window-height="1330"
     id="namedview23"
     showgrid="false"
     fit-margin-top="0"
     fit-margin-left="0"
     fit-margin-right="0"
     fit-margin-bottom="0"
     inkscape:zoom="0.31716402"
     inkscape:cx="-624.57765"
     inkscape:cy="80.857827"
     inkscape:window-x="-12"
     inkscape:window-y="-12"
     inkscape:window-maximized="1"
     inkscape:current-layer="svg18380" />
  <defs
     id="defs18382">
    <filter
       x="0"
       y="0"
       width="1"
       height="1"
       id="filter2917"
       style="color-interpolation-filters:sRGB">
      <feColorMatrix
         id="feColorMatrix2919"
         type="saturate"
         values="1"
         result="fbSourceGraphic" />
      <feColorMatrix
         id="feColorMatrix2921"
         in="fbSourceGraphic"
         values="-1 0 0 0 1 0 -1 0 0 1 0 0 -1 0 1 0 0 0 1 0 " />
    </filter>
  </defs>
  <g
     transform="matrix(1.6738399,0,0,-1.6738399,-470.74437,409.355)"
     id="g7262"
     style="filter:url(#filter2917)">
    <path
       d="m 397.65625,89.03125 c -2.44577,1.280488 -13.51656,8.062462 -16.0451,9.562011 7.52561,6.058809 18.20322,14.809699 25.51434,22.120819 12.91539,12.91539 29.9192,35.97237 38.79002,49.26176 -0.057,-0.83862 -0.69983,-18.71174 -0.78471,-19.54244 -2.88837,-28.26911 -21.77546,-51.812151 -47.47455,-61.40215 z m -52.0625,0.25 c -25.59834,9.830616 -45.40843,35.39875 -47.23894,61.60481 -0.0794,1.13711 -0.45985,2.9962 -0.40685,7.39308 0.0546,4.52755 0.4224,10.6929 1.19154,9.63933 7.78617,-10.66544 29.87825,-40.98359 40.21608,-51.32142 7.31221,-7.31222 14.48205,-12.19922 22.01106,-18.253888 -2.37403,-1.407192 -13.4715,-7.847069 -15.77289,-9.061912 z M 371.375,105.875 c -8.64653,6.53426 -17.37796,14.12796 -25.875,22.625 -19.08371,19.0837 -33.5291,39.47738 -41.84375,56.96875 10.89415,27.02679 37.36898,46.125 68.28125,46.125 30.44311,0 56.589,-18.5294 67.78125,-44.90625 -8.2144,-17.75696 -22.87853,-38.65979 -42.40625,-58.1875 -8.50871,-8.50871 -17.27751,-16.08837 -25.9375,-22.625 z"
       id="path7264"
       style="fill:#ffffff;fill-opacity:1;stroke:none"
       inkscape:connector-curvature="0" />
    <path
       d="m 309.71875,64.21875 c -8.62875,-0.05678 -15.91363,2.28863 -21.0625,7.4375 -10.29775,10.297737 -9.29905,29.06394 -0.5625,50.28125 1.76817,4.29412 3.88447,8.72027 6.28125,13.21875 0.73577,-2.49949 1.59795,-4.95108 2.5625,-7.34375 -1.19244,-2.4608 -2.3049,-4.91012 -3.28125,-7.28125 -8.24178,-20.01578 -8.50734,-36.023909 -0.3125,-44.21875 8.19484,-8.194841 24.20297,-7.898041 44.21875,0.34375 6.92447,2.851251 22.70344,12.699916 30.25271,17.34122 1.6216,-1.217548 3.25412,-2.407947 4.875,-3.5625 -8.69666,-5.510745 -25.66112,-16.00939 -33.75271,-19.34122 -10.60866,-4.368271 -20.59,-6.818221 -29.21875,-6.875 z M 383,97.71875 c -1.60474,1.052238 -3.2214,2.118882 -4.84375,3.25 8.3187,6.42223 16.68285,13.74535 24.8125,21.875 21.87567,21.87566 37.9457,45.39047 46.1875,65.40625 8.24178,20.01579 8.50734,36.02391 0.3125,44.21875 -8.19483,8.19483 -24.17171,7.92929 -44.1875,-0.3125 -0.17287,-0.0712 -0.35785,-0.1464 -0.53125,-0.21875 -2.41181,1.07232 -4.90846,2.00756 -7.4375,2.84375 2.2121,1.04832 4.40706,2.04997 6.5625,2.9375 21.21732,8.73656 39.98351,9.70399 50.28125,-0.59375 10.29773,-10.29774 9.29904,-29.03268 0.5625,-50.25 -8.73655,-21.21731 -25.36847,-45.43096 -47.875,-67.9375 C 399.02819,111.12194 391.0254,104.02796 383,97.71875 Z"
       id="path7266"
       style="fill:#ffffff;fill-opacity:1;stroke:none"
       inkscape:connector-curvature="0" />
    <path
       d="m 433.09375,64.21875 c -8.624,0.05204 -18.61009,2.506728 -29.21875,6.875 -21.21731,8.736544 -45.39972,25.337212 -67.90625,47.84375 -22.50652,22.50653 -39.13845,46.68893 -47.875,67.90625 -8.73654,21.21732 -9.73524,39.98351 0.5625,50.28125 10.29774,10.29774 29.06393,9.29905 50.28125,0.5625 2.2968,-0.94574 4.63962,-1.99724 7,-3.125 -2.48679,-0.84557 -4.94096,-1.80047 -7.3125,-2.875 -0.35133,0.14855 -0.71328,0.2937 -1.0625,0.4375 -20.01577,8.24179 -36.05516,8.53859 -44.25,0.34375 -8.19485,-8.19485 -7.89804,-24.20297 0.34375,-44.21875 8.24179,-20.01579 24.31184,-43.53059 46.1875,-65.40625 21.87567,-21.87567 45.42172,-37.945706 65.4375,-46.1875 20.01579,-8.241789 35.99266,-8.53859 44.1875,-0.34375 8.19483,8.194839 7.9293,24.20296 -0.3125,44.21875 -0.81379,1.97636 -1.72287,3.99128 -2.6875,6.03125 1.00664,2.38137 1.87782,4.82131 2.65625,7.3125 2.12018,-4.0621 3.99183,-8.04714 5.59375,-11.9375 8.73653,-21.21732 9.70399,-39.98351 -0.59375,-50.28125 -5.14887,-5.148871 -12.40725,-7.489535 -21.03125,-7.4375 z"
       id="path7268"
       style="fill:#ffffff;fill-opacity:1;stroke:none"
       inkscape:connector-curvature="0" />
  </g>
  <text
     x="447.89914"
     y="56.15715"
     id="text2923"
     xml:space="preserve"
     style="font-style:normal;font-weight:normal;font-size:72px;font-family:'AvantGarde Bk BT';-inkscape-font-specification:'AvantGarde Bk BT';fill:#000000;fill-opacity:1;stroke:none"><tspan
       x="447.89914"
       y="56.15715"
       id="tspan2925" /></text>
</svg>
